<?xml version="1.0" encoding="UTF-8"?>
<!DOCTYPE svg PUBLIC "-//W3C//DTD SVG 1.1//EN" "http://www.w3.org/Graphics/SVG/1.1/DTD/svg11.dtd">
<svg version="1.1" xmlns="http://www.w3.org/2000/svg" xmlns:xlink="http://www.w3.org/1999/xlink" x="0" y="0" width="57.002" height="44" viewBox="0, 0, 57.002, 44">
  <g id="Layer_1">
    <g>
      <path d="M10.697,13.29 C12.148,13.347 13.091,14.384 13.231,15.783 C14.038,15.305 13.608,15.453 14.52,15.329 L14.775,15.329 C16.177,15.329 17.314,16.466 17.314,17.869 L17.314,32.684 C18.19,32.093 17.706,32.403 18.774,31.768 C20.496,30.81 22.231,30.233 23.884,30.233 C25.839,30.233 27.162,31.126 27.162,32.791 C27.162,34.4 26.152,35.439 24.357,36.08 C20.898,37.315 19.591,38.194 16.473,41.312 C14.855,42.929 13.478,43.672 11.893,43.903 C11.294,43.99 10.833,44.005 9.735,43.999 C9.519,43.998 9.423,43.997 9.3,43.997 L4.578,43.997 C2.05,43.997 0,41.947 0,39.418 L0,18.889 C0,17.486 1.137,16.349 2.539,16.349 C3.452,16.473 3.021,16.325 3.829,16.803 C3.892,15.337 4.976,14.45 6.363,14.31 L6.618,14.31 C7.616,14.445 7.1,14.286 8.131,14.896 C8.468,13.848 9.416,13.393 10.442,13.29 L10.697,13.29 z M10.697,14.29 L10.442,14.29 C9.591,14.29 8.902,14.979 8.902,15.829 L8.902,25.572 C8.902,26.239 7.902,26.239 7.902,25.572 L7.902,16.018 C7.636,15.539 7.122,15.378 6.618,15.31 L6.363,15.31 C5.513,15.31 4.824,15.999 4.824,16.849 L4.824,27.644 C4.824,28.311 3.824,28.311 3.824,27.644 L3.824,18.059 C3.558,17.578 3.044,17.417 2.539,17.349 C1.689,17.349 1,18.038 1,18.889 L1,39.418 C1,41.395 2.602,42.997 4.578,42.997 L9.3,42.997 C9.425,42.997 9.523,42.998 9.74,42.999 C10.788,43.004 11.216,42.991 11.749,42.913 C13.11,42.715 14.294,42.077 15.766,40.604 C18.983,37.388 20.413,36.427 24.021,35.138 C25.459,34.624 26.162,33.902 26.162,32.791 C26.162,31.78 25.351,31.233 23.884,31.233 C22.429,31.233 20.847,31.76 19.26,32.642 C18.699,32.954 18.177,33.288 17.71,33.623 C17.432,33.822 17.236,33.975 17.135,34.06 C16.809,34.332 16.314,34.101 16.314,33.676 L16.314,17.869 C16.314,17.018 15.625,16.329 14.775,16.329 L14.52,16.329 C13.985,16.327 13.545,16.623 13.236,17.039 L13.236,26.624 C13.236,27.291 12.236,27.291 12.236,26.624 L12.236,15.829 C12.236,14.979 11.547,14.29 10.697,14.29 z" fill="#13CFFF"/>
    </g>
    <g>
      <path d="M46.56,13.29 C47.644,13.317 48.46,13.92 48.871,14.896 C49.902,14.286 49.386,14.445 50.384,14.31 L50.639,14.31 C52.09,14.367 53.033,15.404 53.173,16.803 C53.981,16.325 53.55,16.473 54.463,16.349 C55.865,16.349 57.002,17.486 57.002,18.889 L57.002,39.418 C57.002,41.947 54.952,43.997 52.423,43.997 L47.702,43.997 C47.579,43.997 47.483,43.998 47.267,43.999 C46.167,44.005 45.705,43.99 45.105,43.902 C43.522,43.671 42.146,42.928 40.53,41.312 C37.412,38.195 36.104,37.316 32.645,36.08 C30.85,35.439 29.84,34.4 29.84,32.791 C29.84,31.126 31.163,30.233 33.118,30.233 C34.771,30.233 36.506,30.81 38.228,31.768 C39.296,32.403 38.812,32.093 39.688,32.684 L39.688,17.869 C39.688,16.466 40.824,15.329 42.227,15.329 L42.482,15.329 C43.394,15.453 42.964,15.305 43.771,15.783 C43.834,14.317 44.918,13.43 46.305,13.29 L46.56,13.29 z M46.56,14.29 L46.305,14.29 C45.455,14.29 44.766,14.979 44.766,15.829 L44.766,26.624 C44.766,27.291 43.766,27.291 43.766,26.624 L43.766,17.039 C43.5,16.559 42.987,16.398 42.482,16.329 L42.227,16.329 C41.377,16.329 40.688,17.018 40.688,17.869 L40.688,33.676 C40.688,34.101 40.193,34.332 39.867,34.06 C39.767,33.975 39.57,33.822 39.292,33.623 C38.825,33.288 38.304,32.954 37.742,32.642 C36.156,31.76 34.573,31.233 33.118,31.233 C31.651,31.233 30.84,31.78 30.84,32.791 C30.84,33.902 31.543,34.624 32.981,35.138 C36.589,36.427 38.02,37.389 41.237,40.605 C42.708,42.076 43.891,42.714 45.25,42.913 C45.784,42.991 46.213,43.004 47.262,42.999 C47.479,42.998 47.577,42.997 47.702,42.997 L52.423,42.997 C54.4,42.997 56.002,41.395 56.002,39.418 L56.002,18.889 C56.002,18.038 55.313,17.349 54.463,17.349 C53.927,17.346 53.487,17.643 53.178,18.059 L53.178,27.644 C53.178,28.311 52.178,28.311 52.178,27.644 L52.178,16.849 C52.178,15.999 51.489,15.31 50.639,15.31 L50.384,15.31 C49.849,15.307 49.409,15.603 49.1,16.019 L49.1,25.572 C49.1,26.239 48.1,26.239 48.1,25.572 L48.1,15.829 C48.1,14.979 47.411,14.29 46.56,14.29 z" fill="#13CFFF"/>
    </g>
    <path d="M23.202,4.002 L20.468,5.53 L18.941,2.796 C18.622,2.225 17.9,2.021 17.329,2.34 C16.758,2.659 16.554,3.381 16.873,3.952 L18.401,6.686 L15.667,8.213 C15.096,8.532 14.892,9.254 15.211,9.825 C15.53,10.396 16.252,10.6 16.823,10.281 L19.556,8.753 L21.084,11.487 C21.403,12.058 22.124,12.262 22.695,11.943 C23.266,11.624 23.47,10.902 23.151,10.331 L21.624,7.598 L24.357,6.07 C24.928,5.751 25.132,5.03 24.813,4.458 C24.494,3.887 23.772,3.683 23.202,4.002 z" fill="#ACFF35"/>
    <path d="M32.359,1.581 L30.841,1.965 L30.457,0.447 C30.377,0.13 30.055,-0.062 29.738,0.018 C29.421,0.098 29.229,0.42 29.309,0.738 L29.693,2.256 L28.176,2.64 C27.858,2.72 27.666,3.042 27.747,3.359 C27.827,3.676 28.149,3.868 28.466,3.788 L29.984,3.404 L30.368,4.922 C30.448,5.239 30.77,5.431 31.087,5.351 C31.404,5.27 31.596,4.948 31.516,4.631 L31.132,3.113 L32.65,2.729 C32.967,2.649 33.159,2.327 33.078,2.01 C32.998,1.693 32.676,1.501 32.359,1.581 z" fill="#ACFF35"/>
    <path d="M42.167,6.894 L40.058,6.297 L40.655,4.188 C40.78,3.747 40.524,3.289 40.084,3.164 C39.643,3.04 39.185,3.296 39.06,3.736 L38.463,5.846 L36.354,5.249 C35.913,5.124 35.455,5.38 35.33,5.821 C35.206,6.261 35.462,6.72 35.902,6.844 L38.011,7.441 L37.414,9.55 C37.29,9.991 37.546,10.449 37.986,10.573 C38.427,10.698 38.885,10.442 39.01,10.002 L39.607,7.892 L41.716,8.489 C42.156,8.614 42.615,8.358 42.739,7.917 C42.864,7.477 42.608,7.018 42.167,6.894 z" fill="#ACFF35"/>
  </g>
</svg>
