<svg width="1010" height="260" viewBox="0 0 1010 260" fill="none" xmlns="http://www.w3.org/2000/svg">
<rect width="485" height="260" rx="20" fill="#1A2837"/>
<rect x="525" width="485" height="260" rx="20" fill="#1A2837"/>
<mask id="mask0_735_9522" style="mask-type:alpha" maskUnits="userSpaceOnUse" x="551" y="23" width="459" height="237">
<rect x="551" y="23" width="458.979" height="237" rx="8.34507" fill="#18293A"/>
</mask>
<g mask="url(#mask0_735_9522)">
<path fill-rule="evenodd" clip-rule="evenodd" d="M884.365 141.239C884.365 142.16 883.618 142.908 882.696 142.908H878.684C877.762 142.908 877.015 143.655 877.015 144.577V148.576C877.015 149.497 877.762 150.245 878.684 150.245H890.038C890.96 150.245 891.707 150.992 891.707 151.914V155.915C891.707 156.836 892.454 157.584 893.376 157.584H926.769C927.69 157.584 928.438 156.836 928.438 155.915V144.577C928.438 143.655 929.185 142.908 930.107 142.908H941.465C942.387 142.908 943.134 142.16 943.134 141.239V137.238C943.134 136.316 942.387 135.569 941.465 135.569H908.072C907.151 135.569 906.403 136.316 906.403 137.238V141.239C906.403 142.16 907.151 142.908 908.072 142.908H912.076C912.998 142.908 913.745 143.655 913.745 144.577V148.576C913.745 149.497 912.998 150.245 912.076 150.245H900.726C899.804 150.245 899.057 149.497 899.057 148.576V137.238C899.057 136.316 898.31 135.569 897.388 135.569H886.034C885.112 135.569 884.365 136.316 884.365 137.238V141.239ZM972.17 173.808C972.111 172.938 971.385 172.268 970.514 172.268H966.852C965.931 172.268 965.184 173.014 965.183 173.936L965.181 177.941C965.18 178.863 965.928 179.611 966.85 179.611H970.73C971.67 179.611 972.426 178.834 972.389 177.894C972.334 176.527 972.261 175.165 972.17 173.808ZM728.396 76.8427C729.318 76.8427 730.065 76.0955 730.065 75.1737V67.461C730.065 66.0796 728.487 65.3017 727.408 66.1637C724.276 68.6647 721.248 71.2875 718.328 74.0252C717.239 75.0453 717.972 76.8427 719.464 76.8427H728.396ZM670.557 184.011C670.557 267.178 738.288 334.84 821.538 334.84C903.227 334.84 969.974 269.685 972.421 188.673C972.449 187.739 971.696 186.965 970.762 186.965H966.833C965.912 186.965 965.164 187.713 965.164 188.634V192.631C965.164 193.553 964.417 194.3 963.495 194.3H952.145C951.223 194.3 950.476 193.553 950.476 192.631V181.293C950.476 180.372 949.729 179.624 948.807 179.624H944.799C943.877 179.624 943.13 178.877 943.13 177.955V173.95C943.13 173.029 942.383 172.281 941.461 172.281H937.453C936.531 172.281 935.784 173.029 935.784 173.95V192.631C935.784 193.553 936.531 194.3 937.453 194.3H941.461C942.383 194.3 943.13 195.048 943.13 195.969V199.972C943.13 200.894 943.877 201.641 944.799 201.641H956.153C957.075 201.641 957.822 202.389 957.822 203.31V221.987C957.822 222.909 957.075 223.656 956.153 223.656H952.145C951.223 223.656 950.476 224.404 950.476 225.325V229.326C950.476 230.248 949.729 230.995 948.807 230.995H944.799C943.877 230.995 943.13 231.743 943.13 232.664V251.347C943.13 252.269 942.383 253.016 941.461 253.016H937.453C936.531 253.016 935.784 253.764 935.784 254.685V266.025C935.784 266.947 935.037 267.695 934.115 267.695H930.103C929.181 267.695 928.434 268.442 928.434 269.364V280.705C928.434 281.627 927.687 282.374 926.765 282.374H922.757C921.835 282.374 921.088 283.122 921.088 284.044V288.005C921.088 288.927 920.34 289.674 919.419 289.674H915.411C914.489 289.674 913.742 290.421 913.742 291.343V295.344C913.742 296.266 912.994 297.013 912.073 297.013H900.722C899.801 297.013 899.053 296.266 899.053 295.344V254.652C899.053 253.73 898.306 252.983 897.384 252.983H893.372C892.451 252.983 891.703 252.236 891.703 251.314V225.292C891.703 224.37 890.956 223.623 890.034 223.623H886.03C885.108 223.623 884.361 222.876 884.361 221.954V217.953C884.361 217.031 883.614 216.284 882.692 216.284H863.992C863.07 216.284 862.323 215.537 862.323 214.615V210.616C862.323 209.694 861.576 208.947 860.654 208.947H856.642C855.72 208.947 854.973 208.2 854.973 207.278V203.277C854.973 202.355 854.225 201.608 853.304 201.608H849.296C848.374 201.608 847.627 200.861 847.627 199.939V173.917C847.627 172.995 848.374 172.248 849.296 172.248H853.304C854.225 172.248 854.973 171.501 854.973 170.579V166.582C854.973 165.66 855.72 164.913 856.642 164.913H860.654C861.576 164.913 862.323 164.166 862.323 163.244V159.241C862.323 158.319 863.07 157.572 863.992 157.572H868C868.922 157.572 869.669 156.825 869.669 155.903V151.902C869.669 150.98 868.922 150.233 868 150.233H863.992C863.07 150.233 862.323 149.486 862.323 148.564V137.226C862.323 136.304 863.07 135.557 863.992 135.557H875.342C876.264 135.557 877.011 134.81 877.011 133.888V122.55C877.011 121.628 877.758 120.881 878.68 120.881H882.692C883.614 120.881 884.361 120.134 884.361 119.212V115.207C884.361 114.285 885.108 113.538 886.03 113.538H890.034C890.956 113.538 891.703 112.791 891.703 111.869V107.87C891.703 106.948 892.451 106.201 893.372 106.201H912.073C912.994 106.201 913.742 105.454 913.742 104.532V100.527C913.742 99.605 914.489 98.8578 915.411 98.8578H919.419C920.34 98.8578 921.088 98.1106 921.088 97.1888V93.1917C921.088 92.27 920.34 91.5227 919.419 91.5227H908.068C907.147 91.5227 906.399 92.27 906.399 93.1917V97.1888C906.399 98.1106 905.652 98.8578 904.73 98.8578H886.03C885.108 98.8578 884.361 98.1106 884.361 97.1888V93.1917C884.361 92.27 885.108 91.5227 886.03 91.5227H890.034C890.956 91.5227 891.703 90.7755 891.703 89.8537V85.8507C891.703 84.929 892.451 84.1817 893.372 84.1817H897.384C898.306 84.1817 899.053 83.4345 899.053 82.5127V71.1747C899.053 70.2529 899.801 69.5057 900.722 69.5057H912.073C912.994 69.5057 913.742 68.7584 913.742 67.8367V65.479C913.742 64.9621 913.503 64.474 913.092 64.1602C896.701 51.6334 877.673 42.3769 857 37.3847C855.959 37.1334 854.965 37.9275 854.965 38.9982V45.8176C854.965 46.7394 854.218 47.4866 853.296 47.4866H849.284C848.362 47.4866 847.615 48.2339 847.615 49.1557V60.4898C847.615 61.4115 846.868 62.1588 845.946 62.1588H841.942C841.02 62.1588 840.273 62.906 840.273 63.8278V67.8308C840.273 68.7525 839.525 69.4998 838.604 69.4998H834.596C833.674 69.4998 832.927 70.247 832.927 71.1688V75.1658C832.927 76.0876 832.179 76.8349 831.258 76.8349H819.903C818.982 76.8349 818.234 77.5821 818.234 78.5039V82.5068C818.234 83.4286 817.487 84.1758 816.565 84.1758H812.557C811.635 84.1758 810.888 84.9231 810.888 85.8449V89.8458C810.888 90.7676 810.141 91.5149 809.219 91.5149H805.207C804.285 91.5149 803.538 90.7676 803.538 89.8458V85.8449C803.538 84.9231 802.791 84.1758 801.869 84.1758H797.865C796.943 84.1758 796.196 83.4286 796.196 82.5068V56.4888C796.196 55.567 795.449 54.8198 794.527 54.8198H790.519C789.597 54.8198 788.85 54.0725 788.85 53.1508V49.1517C788.85 48.23 788.103 47.4827 787.181 47.4827H783.173C782.251 47.4827 781.504 46.7355 781.504 45.8137V40.754C781.504 39.6521 780.455 38.8526 779.397 39.1601C764.066 43.616 749.734 50.4424 736.829 59.2162C735.494 60.124 736.149 62.1627 737.764 62.1627H750.442C751.364 62.1627 752.111 61.4155 752.111 60.4937V56.4927C752.111 55.5709 752.859 54.8237 753.781 54.8237H765.135C766.056 54.8237 766.804 55.5709 766.804 56.4927V60.5016C766.804 61.4233 767.551 62.1706 768.473 62.1706H772.481C773.403 62.1706 774.15 62.9178 774.15 63.8396V67.8406C774.15 68.7623 774.897 69.5096 775.819 69.5096H779.827C780.749 69.5096 781.496 70.2568 781.496 71.1786V82.5167C781.496 83.4384 780.749 84.1857 779.827 84.1857H768.469C767.547 84.1857 766.8 83.4384 766.8 82.5167V71.1786C766.8 70.2568 766.053 69.5096 765.131 69.5096H761.127C760.205 69.5096 759.458 70.2568 759.458 71.1786V75.1776C759.458 76.0994 758.71 76.8466 757.789 76.8466H753.781C752.859 76.8466 752.111 77.5939 752.111 78.5157V82.5167C752.111 83.4384 751.364 84.1857 750.442 84.1857H739.088C738.167 84.1857 737.419 84.9329 737.419 85.8547V97.1927C737.419 98.1145 738.167 98.8617 739.088 98.8617H743.096C744.018 98.8617 744.765 99.609 744.765 100.531V104.536C744.765 105.457 745.513 106.205 746.434 106.205H750.442C751.364 106.205 752.111 105.457 752.111 104.536V100.531C752.111 99.609 752.859 98.8617 753.781 98.8617H757.789C758.71 98.8617 759.458 98.1145 759.458 97.1927V93.1957C759.458 92.2739 760.205 91.5266 761.127 91.5266H779.831C780.753 91.5266 781.5 92.2739 781.5 93.1957V104.565C781.5 105.487 782.247 106.234 783.169 106.234H787.177C788.099 106.234 788.846 106.981 788.846 107.903V111.902C788.846 112.824 789.593 113.571 790.515 113.571H794.519C795.441 113.571 796.188 114.318 796.188 115.24V119.245C796.188 120.167 795.441 120.914 794.519 120.914H790.511C789.589 120.914 788.842 121.661 788.842 122.583V126.582C788.842 127.504 788.095 128.251 787.173 128.251H783.165C782.243 128.251 781.496 127.504 781.496 126.582V122.583C781.496 121.661 780.749 120.914 779.827 120.914H775.815C774.893 120.914 774.146 121.661 774.146 122.583V133.921C774.146 134.843 773.399 135.59 772.477 135.59H761.127C760.205 135.59 759.458 136.337 759.458 137.259V148.597C759.458 149.519 758.71 150.266 757.789 150.266H753.781C752.859 150.266 752.111 151.014 752.111 151.935V155.936C752.111 156.858 751.364 157.605 750.442 157.605H746.434C745.513 157.605 744.765 158.353 744.765 159.274V170.612C744.765 171.534 744.018 172.281 743.096 172.281H731.738C730.816 172.281 730.069 171.534 730.069 170.612V166.615C730.069 165.694 729.322 164.946 728.4 164.946H717.05C716.128 164.946 715.381 165.694 715.381 166.615V177.955C715.381 178.877 716.128 179.624 717.05 179.624H728.4C729.322 179.624 730.069 180.372 730.069 181.293V192.631C730.069 193.553 730.816 194.3 731.738 194.3H743.096C744.018 194.3 744.765 195.048 744.765 195.969V199.972C744.765 200.894 745.513 201.641 746.434 201.641H772.481C773.403 201.641 774.15 202.389 774.15 203.31V207.311C774.15 208.233 774.897 208.98 775.819 208.98H787.177C788.099 208.98 788.846 209.728 788.846 210.649V214.648C788.846 215.57 789.593 216.317 790.515 216.317H794.527C795.449 216.317 796.196 217.065 796.196 217.986V221.987C796.196 222.909 796.943 223.656 797.865 223.656H801.869C802.791 223.656 803.538 224.404 803.538 225.325V229.326C803.538 230.248 804.285 230.995 805.207 230.995H816.542C817.463 230.995 818.211 231.743 818.211 232.664V244.006C818.211 244.928 817.463 245.675 816.542 245.675H812.538C811.616 245.675 810.869 246.423 810.869 247.344V266.025C810.869 266.947 810.121 267.695 809.2 267.695H805.188C804.266 267.695 803.519 268.442 803.519 269.364V280.705C803.519 281.627 802.771 282.374 801.849 282.374H790.495C789.574 282.374 788.826 283.122 788.826 284.044V295.385C788.826 296.307 788.079 297.054 787.157 297.054H783.149C782.227 297.054 781.48 297.802 781.48 298.724V302.699C781.48 303.621 780.733 304.368 779.811 304.368H775.803C774.881 304.368 774.134 305.115 774.134 306.037V317.375C774.134 318.297 773.387 319.044 772.465 319.044H768.453C767.531 319.044 766.784 318.297 766.784 317.375V313.374C766.784 312.452 766.037 311.705 765.115 311.705H761.111C760.189 311.705 759.442 310.958 759.442 310.036V306.037C759.442 305.115 758.695 304.368 757.773 304.368H753.765C752.843 304.368 752.096 303.621 752.096 302.699V262.003C752.096 261.081 751.349 260.334 750.427 260.334H746.419C745.497 260.334 744.75 259.587 744.75 258.665V247.323C744.75 246.401 744.002 245.654 743.081 245.654H739.076C738.155 245.654 737.407 244.907 737.407 243.985V239.982C737.407 239.06 736.66 238.313 735.738 238.313H731.723C730.801 238.313 730.054 237.566 730.054 236.644V225.304C730.054 224.382 730.801 223.635 731.723 223.635H735.738C736.66 223.635 737.407 222.888 737.407 221.966V203.287C737.407 202.365 736.66 201.618 735.738 201.618H724.38C723.459 201.618 722.711 200.871 722.711 199.949V195.948C722.711 195.026 721.964 194.279 721.042 194.279H717.034C716.112 194.279 715.365 193.532 715.365 192.61V188.613C715.365 187.691 714.618 186.944 713.696 186.944H702.346C701.424 186.944 700.677 186.196 700.677 185.275V181.272C700.677 180.35 699.93 179.603 699.008 179.603H694.996C694.074 179.603 693.327 178.855 693.327 177.934V173.929C693.327 173.007 692.58 172.26 691.658 172.26H687.65C686.728 172.26 685.981 171.513 685.981 170.591V144.577C685.981 143.655 685.234 142.908 684.312 142.908H679.717C679.119 142.908 678.635 142.423 678.635 141.825C678.635 140.603 677.008 140.345 676.663 141.518C672.693 155.001 670.557 169.264 670.557 184.011Z" fill="url(#paint0_linear_735_9522)"/>
<g filter="url(#filter0_f_735_9522)">
<path fill-rule="evenodd" clip-rule="evenodd" d="M677.933 134.365C677.933 130.983 679.121 128.112 681.497 125.752C683.873 123.392 686.736 122.212 690.087 122.212C693.437 122.212 696.3 123.392 698.676 125.752C701.052 128.112 702.241 130.983 702.241 134.365C702.241 137.748 701.052 140.619 698.676 142.979C696.3 145.339 693.437 146.519 690.087 146.519C686.736 146.519 683.873 145.339 681.497 142.979C679.121 140.619 677.933 137.748 677.933 134.365Z" stroke="#0BF2F6" stroke-width="7.77899" stroke-linecap="round"/>
</g>
<path d="M689.857 154.36L689.341 154.876L689.857 155.391L690.372 154.876L689.857 154.36ZM679.772 144.276L679.257 144.791L679.772 144.276ZM699.941 144.276L700.457 144.791L699.941 144.276ZM699.425 143.76L689.341 153.844L690.372 154.876L700.457 144.791L699.425 143.76ZM690.372 153.844L680.288 143.76L679.257 144.791L689.341 154.876L690.372 153.844ZM680.288 143.76C675.003 138.475 675.003 129.907 680.288 124.623L679.257 123.591C673.402 129.446 673.402 138.937 679.257 144.791L680.288 143.76ZM699.425 124.623C704.71 129.907 704.71 138.475 699.425 143.76L700.457 144.791C706.311 138.937 706.311 129.446 700.457 123.591L699.425 124.623ZM700.457 123.591C694.602 117.737 685.111 117.737 679.257 123.591L680.288 124.623C685.573 119.338 694.141 119.338 699.425 124.623L700.457 123.591Z" fill="#0BF2F6"/>
<rect x="696.599" y="127.396" width="13.5432" height="13.5432" rx="6.77162" transform="rotate(90 696.599 127.396)" stroke="#0BF2F6" stroke-width="1.45856" stroke-linecap="round"/>
<path d="M689.945 144.421V145.15V144.421ZM682.13 146.346C681.811 146.591 681.751 147.049 681.997 147.369C682.242 147.688 682.7 147.748 683.019 147.502L682.13 146.346ZM696.871 147.502C697.191 147.748 697.648 147.688 697.894 147.369C698.14 147.049 698.08 146.591 697.761 146.346L696.871 147.502ZM683.019 147.502C684.937 146.027 687.338 145.15 689.945 145.15V143.692C687.005 143.692 684.294 144.682 682.13 146.346L683.019 147.502ZM697.761 146.346C695.597 144.682 692.886 143.692 689.945 143.692V145.15C692.553 145.15 694.953 146.027 696.871 147.502L697.761 146.346Z" fill="#0BF2F6"/>
<g filter="url(#filter1_f_735_9522)">
<path fill-rule="evenodd" clip-rule="evenodd" d="M715.016 171.892C715.016 168.51 716.204 165.639 718.58 163.279C720.956 160.919 723.819 159.739 727.17 159.739C730.52 159.739 733.383 160.919 735.759 163.279C738.135 165.639 739.324 168.51 739.324 171.892C739.324 175.275 738.135 178.146 735.759 180.506C733.383 182.866 730.52 184.046 727.17 184.046C723.819 184.046 720.956 182.866 718.58 180.506C716.204 178.146 715.016 175.275 715.016 171.892Z" stroke="#0BF2F6" stroke-width="7.77899" stroke-linecap="round"/>
</g>
<path d="M727.384 191.887L726.868 192.403L727.384 192.918L727.899 192.403L727.384 191.887ZM717.299 181.803L716.783 182.318L717.299 181.803ZM737.468 181.803L737.984 182.318L737.468 181.803ZM736.952 181.287L726.868 191.371L727.899 192.403L737.984 182.318L736.952 181.287ZM727.899 191.371L717.815 181.287L716.783 182.318L726.868 192.403L727.899 191.371ZM717.815 181.287C712.53 176.002 712.53 167.434 717.815 162.149L716.783 161.118C710.929 166.972 710.929 176.464 716.783 182.318L717.815 181.287ZM736.952 162.149C742.237 167.434 742.237 176.002 736.952 181.287L737.984 182.318C743.838 176.464 743.838 166.972 737.984 161.118L736.952 162.149ZM737.984 161.118C732.129 155.264 722.638 155.264 716.783 161.118L717.815 162.149C723.099 156.865 731.668 156.865 736.952 162.149L737.984 161.118Z" fill="#0BF2F6"/>
<rect x="734.151" y="164.949" width="13.5432" height="13.5432" rx="6.77162" transform="rotate(90 734.151 164.949)" stroke="#0BF2F6" stroke-width="1.45856" stroke-linecap="round"/>
<path d="M727.498 181.974V182.703V181.974ZM719.683 183.899C719.364 184.144 719.304 184.602 719.549 184.921C719.795 185.241 720.253 185.3 720.572 185.055L719.683 183.899ZM734.424 185.055C734.743 185.3 735.201 185.241 735.447 184.921C735.692 184.602 735.633 184.144 735.313 183.899L734.424 185.055ZM720.572 185.055C722.49 183.58 724.891 182.703 727.498 182.703V181.244C724.558 181.244 721.847 182.234 719.683 183.899L720.572 185.055ZM735.313 183.899C733.149 182.234 730.438 181.244 727.498 181.244V182.703C730.106 182.703 732.506 183.58 734.424 185.055L735.313 183.899Z" fill="#0BF2F6"/>
<g filter="url(#filter2_f_735_9522)">
<path fill-rule="evenodd" clip-rule="evenodd" d="M752.987 209.419C752.987 206.036 754.175 203.165 756.551 200.805C758.927 198.445 761.791 197.265 765.141 197.265C768.491 197.265 771.354 198.445 773.73 200.805C776.107 203.165 777.295 206.036 777.295 209.419C777.295 212.802 776.107 215.673 773.73 218.033C771.354 220.393 768.491 221.573 765.141 221.573C761.791 221.573 758.927 220.393 756.551 218.033C754.175 215.673 752.987 212.802 752.987 209.419Z" stroke="#0BF2F6" stroke-width="7.77899" stroke-linecap="round"/>
</g>
<path d="M764.911 229.414L764.395 229.929L764.911 230.445L765.427 229.929L764.911 229.414ZM754.826 219.329L754.311 219.845V219.845L754.826 219.329ZM774.995 219.329L775.511 219.845V219.845L774.995 219.329ZM774.48 218.814L764.395 228.898L765.427 229.929L775.511 219.845L774.48 218.814ZM765.427 228.898L755.342 218.814L754.311 219.845L764.395 229.929L765.427 228.898ZM755.342 218.814C750.058 213.529 750.058 204.961 755.342 199.676L754.311 198.645C748.457 204.499 748.457 213.991 754.311 219.845L755.342 218.814ZM774.48 199.676C779.764 204.961 779.764 213.529 774.48 218.814L775.511 219.845C781.365 213.991 781.365 204.499 775.511 198.645L774.48 199.676ZM775.511 198.645C769.657 192.791 760.165 192.791 754.311 198.645L755.342 199.676C760.627 194.392 769.195 194.392 774.48 199.676L775.511 198.645Z" fill="#0BF2F6"/>
<rect x="771.704" y="202.502" width="13.5432" height="13.5432" rx="6.77162" transform="rotate(90 771.704 202.502)" stroke="#0BF2F6" stroke-width="1.45856" stroke-linecap="round"/>
<path d="M765.051 219.526V220.256V219.526ZM757.236 221.451C756.916 221.697 756.857 222.155 757.102 222.474C757.348 222.793 757.806 222.853 758.125 222.608L757.236 221.451ZM771.977 222.608C772.296 222.853 772.754 222.793 773 222.474C773.245 222.155 773.185 221.697 772.866 221.451L771.977 222.608ZM758.125 222.608C760.043 221.132 762.443 220.256 765.051 220.256V218.797C762.111 218.797 759.399 219.787 757.236 221.451L758.125 222.608ZM772.866 221.451C770.702 219.787 767.991 218.797 765.051 218.797V220.256C767.658 220.256 770.059 221.132 771.977 222.608L772.866 221.451Z" fill="#0BF2F6"/>
<g filter="url(#filter3_f_735_9522)">
<path fill-rule="evenodd" clip-rule="evenodd" d="M790.386 246.352C790.386 242.97 791.574 240.098 793.951 237.738C796.327 235.378 799.19 234.198 802.54 234.198C805.89 234.198 808.753 235.378 811.13 237.738C813.506 240.098 814.694 242.97 814.694 246.352C814.694 249.735 813.506 252.606 811.13 254.966C808.753 257.326 805.89 258.506 802.54 258.506C799.19 258.506 796.327 257.326 793.951 254.966C791.574 252.606 790.386 249.735 790.386 246.352Z" stroke="#0BF2F6" stroke-width="7.77899" stroke-linecap="round"/>
</g>
<path d="M802.31 266.347L801.795 266.862L802.31 267.378L802.826 266.862L802.31 266.347ZM792.226 256.262L791.71 256.778V256.778L792.226 256.262ZM812.395 256.262L812.91 256.778V256.778L812.395 256.262ZM811.879 255.747L801.795 265.831L802.826 266.862L812.91 256.778L811.879 255.747ZM802.826 265.831L792.742 255.747L791.71 256.778L801.795 266.862L802.826 265.831ZM792.742 255.747C787.457 250.462 787.457 241.894 792.742 236.609L791.71 235.578C785.856 241.432 785.856 250.924 791.71 256.778L792.742 255.747ZM811.879 236.609C817.164 241.894 817.164 250.462 811.879 255.747L812.91 256.778C818.765 250.924 818.765 241.432 812.91 235.578L811.879 236.609ZM812.91 235.578C807.056 229.724 797.564 229.724 791.71 235.578L792.742 236.609C798.026 231.325 806.594 231.325 811.879 236.609L812.91 235.578Z" fill="#0BF2F6"/>
<rect x="809.257" y="239.22" width="13.5432" height="13.5432" rx="6.77162" transform="rotate(90 809.257 239.22)" stroke="#0BF2F6" stroke-width="1.45856" stroke-linecap="round"/>
<path d="M802.604 256.245V256.974V256.245ZM794.789 258.17C794.47 258.415 794.41 258.873 794.655 259.192C794.901 259.512 795.359 259.571 795.678 259.326L794.789 258.17ZM809.53 259.326C809.849 259.571 810.307 259.512 810.553 259.192C810.798 258.873 810.739 258.415 810.419 258.17L809.53 259.326ZM795.678 259.326C797.596 257.851 799.997 256.974 802.604 256.974V255.515C799.664 255.515 796.953 256.505 794.789 258.17L795.678 259.326ZM810.419 258.17C808.255 256.505 805.544 255.515 802.604 255.515V256.974C805.211 256.974 807.612 257.851 809.53 259.326L810.419 258.17Z" fill="#0BF2F6"/>
<g filter="url(#filter4_f_735_9522)">
<path fill-rule="evenodd" clip-rule="evenodd" d="M752.408 134.565C752.408 131.182 753.596 128.311 755.972 125.951C758.348 123.591 761.212 122.411 764.562 122.411C767.912 122.411 770.775 123.591 773.151 125.951C775.527 128.311 776.716 131.182 776.716 134.565C776.716 137.948 775.527 140.819 773.151 143.179C770.775 145.539 767.912 146.719 764.562 146.719C761.212 146.719 758.348 145.539 755.972 143.179C753.596 140.819 752.408 137.948 752.408 134.565Z" stroke="#0BF2F6" stroke-width="7.77899" stroke-linecap="round"/>
</g>
<path d="M764.776 154.559L764.26 155.075L764.776 155.591L765.291 155.075L764.776 154.559ZM754.691 144.475L754.176 144.991L754.691 144.475ZM774.86 144.475L775.376 144.991L774.86 144.475ZM774.344 143.959L764.26 154.044L765.291 155.075L775.376 144.991L774.344 143.959ZM765.291 154.044L755.207 143.959L754.176 144.991L764.26 155.075L765.291 154.044ZM755.207 143.959C749.922 138.675 749.922 130.106 755.207 124.822L754.176 123.79C748.321 129.645 748.321 139.136 754.176 144.991L755.207 143.959ZM774.344 124.822C779.629 130.106 779.629 138.675 774.344 143.959L775.376 144.991C781.23 139.136 781.23 129.645 775.376 123.79L774.344 124.822ZM775.376 123.79C769.521 117.936 760.03 117.936 754.176 123.79L755.207 124.822C760.492 119.537 769.06 119.537 774.344 124.822L775.376 123.79Z" fill="#0BF2F6"/>
<rect x="771.704" y="127.396" width="13.5432" height="13.5432" rx="6.77162" transform="rotate(90 771.704 127.396)" stroke="#0BF2F6" stroke-width="1.45856" stroke-linecap="round"/>
<path d="M765.051 144.421V145.15V144.421ZM757.236 146.346C756.916 146.591 756.857 147.049 757.102 147.369C757.348 147.688 757.806 147.748 758.125 147.502L757.236 146.346ZM771.977 147.502C772.296 147.748 772.754 147.688 773 147.369C773.245 147.049 773.185 146.591 772.866 146.346L771.977 147.502ZM758.125 147.502C760.043 146.027 762.443 145.15 765.051 145.15V143.691C762.111 143.691 759.399 144.681 757.236 146.346L758.125 147.502ZM772.866 146.346C770.702 144.681 767.991 143.691 765.051 143.691V145.15C767.658 145.15 770.059 146.027 771.977 147.502L772.866 146.346Z" fill="#0BF2F6"/>
<g filter="url(#filter5_f_735_9522)">
<path fill-rule="evenodd" clip-rule="evenodd" d="M715.325 97.0379C715.325 93.6552 716.513 90.784 718.889 88.424C721.265 86.064 724.129 84.884 727.479 84.884C730.829 84.884 733.692 86.064 736.068 88.424C738.444 90.784 739.633 93.6552 739.633 97.0379C739.633 100.421 738.444 103.292 736.068 105.652C733.692 108.012 730.829 109.192 727.479 109.192C724.129 109.192 721.265 108.012 718.889 105.652C716.513 103.292 715.325 100.421 715.325 97.0379Z" stroke="#0BF2F6" stroke-width="7.77899" stroke-linecap="round"/>
</g>
<path d="M727.249 117.032L726.733 117.548L727.249 118.064L727.764 117.548L727.249 117.032ZM717.164 106.948L716.649 107.464L717.164 106.948ZM737.333 106.948L737.849 107.464L737.333 106.948ZM736.817 106.432L726.733 116.517L727.764 117.548L737.849 107.464L736.817 106.432ZM727.764 116.517L717.68 106.432L716.649 107.464L726.733 117.548L727.764 116.517ZM717.68 106.432C712.395 101.148 712.395 92.5795 717.68 87.2948L716.649 86.2635C710.794 92.1177 710.794 101.609 716.649 107.464L717.68 106.432ZM736.817 87.2948C742.102 92.5795 742.102 101.148 736.817 106.432L737.849 107.464C743.703 101.609 743.703 92.1177 737.849 86.2635L736.817 87.2948ZM737.849 86.2635C731.995 80.4092 722.503 80.4092 716.649 86.2635L717.68 87.2948C722.965 82.0102 731.533 82.0102 736.817 87.2948L737.849 86.2635Z" fill="#0BF2F6"/>
<rect x="734.151" y="89.8433" width="13.5432" height="13.5432" rx="6.77162" transform="rotate(90 734.151 89.8433)" stroke="#0BF2F6" stroke-width="1.45856" stroke-linecap="round"/>
<path d="M727.498 106.868V107.597V106.868ZM719.683 108.793C719.364 109.039 719.304 109.496 719.549 109.816C719.795 110.135 720.253 110.195 720.572 109.949L719.683 108.793ZM734.424 109.949C734.743 110.195 735.201 110.135 735.447 109.816C735.692 109.496 735.633 109.039 735.313 108.793L734.424 109.949ZM720.572 109.949C722.49 108.474 724.891 107.597 727.498 107.597V106.139C724.558 106.139 721.847 107.129 719.683 108.793L720.572 109.949ZM735.313 108.793C733.149 107.129 730.438 106.139 727.498 106.139V107.597C730.106 107.597 732.506 108.474 734.424 109.949L735.313 108.793Z" fill="#0BF2F6"/>
<g filter="url(#filter6_f_735_9522)">
<path fill-rule="evenodd" clip-rule="evenodd" d="M902.545 134.565C902.545 131.182 903.733 128.311 906.109 125.951C908.486 123.591 911.349 122.411 914.699 122.411C918.049 122.411 920.912 123.591 923.288 125.951C925.665 128.311 926.853 131.182 926.853 134.565C926.853 137.948 925.665 140.819 923.288 143.179C920.912 145.539 918.049 146.719 914.699 146.719C911.349 146.719 908.486 145.539 906.109 143.179C903.733 140.819 902.545 137.948 902.545 134.565Z" stroke="#0BF2F6" stroke-width="7.77899" stroke-linecap="round"/>
</g>
<path d="M914.913 154.559L914.397 155.075L914.913 155.591L915.429 155.075L914.913 154.559ZM904.828 144.475L904.313 144.991L904.828 144.475ZM924.997 144.475L925.513 144.991L924.997 144.475ZM924.482 143.959L914.397 154.044L915.429 155.075L925.513 144.991L924.482 143.959ZM915.429 154.044L905.344 143.959L904.313 144.991L914.397 155.075L915.429 154.044ZM905.344 143.959C900.059 138.675 900.059 130.106 905.344 124.822L904.313 123.79C898.459 129.645 898.459 139.136 904.313 144.991L905.344 143.959ZM924.482 124.822C929.766 130.106 929.766 138.675 924.482 143.959L925.513 144.991C931.367 139.136 931.367 129.645 925.513 123.79L924.482 124.822ZM925.513 123.79C919.659 117.936 910.167 117.936 904.313 123.79L905.344 124.822C910.629 119.537 919.197 119.537 924.482 124.822L925.513 123.79Z" fill="#0BF2F6"/>
<rect x="921.916" y="127.396" width="13.5432" height="13.5432" rx="6.77162" transform="rotate(90 921.916 127.396)" stroke="#0BF2F6" stroke-width="1.45856" stroke-linecap="round"/>
<path d="M915.262 144.421V145.15V144.421ZM907.447 146.346C907.128 146.591 907.068 147.049 907.314 147.369C907.559 147.688 908.017 147.748 908.336 147.502L907.447 146.346ZM922.188 147.502C922.508 147.748 922.965 147.688 923.211 147.369C923.456 147.049 923.397 146.591 923.077 146.346L922.188 147.502ZM908.336 147.502C910.254 146.027 912.655 145.15 915.262 145.15V143.691C912.322 143.691 909.611 144.681 907.447 146.346L908.336 147.502ZM923.077 146.346C920.914 144.681 918.202 143.691 915.262 143.691V145.15C917.87 145.15 920.27 146.027 922.188 147.502L923.077 146.346Z" fill="#0BF2F6"/>
<g filter="url(#filter7_f_735_9522)">
<path fill-rule="evenodd" clip-rule="evenodd" d="M865.462 97.0379C865.462 93.6552 866.65 90.784 869.026 88.424C871.403 86.064 874.266 84.884 877.616 84.884C880.966 84.884 883.829 86.064 886.205 88.424C888.582 90.784 889.77 93.6552 889.77 97.0379C889.77 100.421 888.582 103.292 886.205 105.652C883.829 108.012 880.966 109.192 877.616 109.192C874.266 109.192 871.403 108.012 869.026 105.652C866.65 103.292 865.462 100.421 865.462 97.0379Z" stroke="#0BF2F6" stroke-width="7.77899" stroke-linecap="round"/>
</g>
<path d="M877.386 117.032L876.87 117.548L877.386 118.064L877.902 117.548L877.386 117.032ZM867.302 106.948L866.786 107.464L867.302 106.948ZM887.47 106.948L887.986 107.464L887.47 106.948ZM886.955 106.432L876.87 116.517L877.902 117.548L887.986 107.464L886.955 106.432ZM877.902 116.517L867.817 106.432L866.786 107.464L876.87 117.548L877.902 116.517ZM867.817 106.432C862.533 101.148 862.533 92.5795 867.817 87.2948L866.786 86.2635C860.932 92.1177 860.932 101.609 866.786 107.464L867.817 106.432ZM886.955 87.2948C892.239 92.5795 892.239 101.148 886.955 106.432L887.986 107.464C893.84 101.609 893.84 92.1177 887.986 86.2635L886.955 87.2948ZM887.986 86.2635C882.132 80.4092 872.64 80.4092 866.786 86.2635L867.817 87.2948C873.102 82.0102 881.67 82.0102 886.955 87.2948L887.986 86.2635Z" fill="#0BF2F6"/>
<rect x="884.363" y="89.8433" width="13.5432" height="13.5432" rx="6.77162" transform="rotate(90 884.363 89.8433)" stroke="#0BF2F6" stroke-width="1.45856" stroke-linecap="round"/>
<path d="M877.71 106.868V107.597V106.868ZM869.895 108.793C869.575 109.039 869.516 109.496 869.761 109.816C870.007 110.135 870.465 110.195 870.784 109.949L869.895 108.793ZM884.636 109.949C884.955 110.195 885.413 110.135 885.659 109.816C885.904 109.496 885.844 109.039 885.525 108.793L884.636 109.949ZM870.784 109.949C872.702 108.474 875.103 107.597 877.71 107.597V106.139C874.77 106.139 872.059 107.129 869.895 108.793L870.784 109.949ZM885.525 108.793C883.361 107.129 880.65 106.139 877.71 106.139V107.597C880.317 107.597 882.718 108.474 884.636 109.949L885.525 108.793Z" fill="#0BF2F6"/>
<g filter="url(#filter8_f_735_9522)">
<path fill-rule="evenodd" clip-rule="evenodd" d="M940.516 172.092C940.516 168.71 941.704 165.838 944.08 163.478C946.457 161.118 949.32 159.938 952.67 159.938C956.02 159.938 958.883 161.118 961.26 163.478C963.636 165.838 964.824 168.71 964.824 172.092C964.824 175.475 963.636 178.346 961.26 180.706C958.883 183.066 956.02 184.246 952.67 184.246C949.32 184.246 946.457 183.066 944.08 180.706C941.704 178.346 940.516 175.475 940.516 172.092Z" stroke="#0BF2F6" stroke-width="7.77899" stroke-linecap="round"/>
</g>
<path d="M952.44 192.087L951.924 192.603L952.44 193.118L952.956 192.603L952.44 192.087ZM942.356 182.003L941.84 182.518H941.84L942.356 182.003ZM962.525 182.003L963.04 182.518L962.525 182.003ZM962.009 181.487L951.924 191.571L952.956 192.603L963.04 182.518L962.009 181.487ZM952.956 191.571L942.871 181.487L941.84 182.518L951.924 192.603L952.956 191.571ZM942.871 181.487C937.587 176.202 937.587 167.634 942.871 162.35L941.84 161.318C935.986 167.172 935.986 176.664 941.84 182.518L942.871 181.487ZM962.009 162.35C967.294 167.634 967.294 176.202 962.009 181.487L963.04 182.518C968.894 176.664 968.894 167.172 963.04 161.318L962.009 162.35ZM963.04 161.318C957.186 155.464 947.694 155.464 941.84 161.318L942.871 162.35C948.156 157.065 956.724 157.065 962.009 162.35L963.04 161.318Z" fill="#0BF2F6"/>
<rect x="959.468" y="164.949" width="13.5432" height="13.5432" rx="6.77162" transform="rotate(90 959.468 164.949)" stroke="#0BF2F6" stroke-width="1.45856" stroke-linecap="round"/>
<path d="M952.815 181.974V182.703V181.974ZM945 183.899C944.68 184.144 944.621 184.602 944.866 184.921C945.112 185.241 945.57 185.3 945.889 185.055L945 183.899ZM959.741 185.055C960.06 185.3 960.518 185.241 960.764 184.921C961.009 184.602 960.949 184.144 960.63 183.899L959.741 185.055ZM945.889 185.055C947.807 183.58 950.208 182.703 952.815 182.703V181.244C949.875 181.244 947.164 182.234 945 183.899L945.889 185.055ZM960.63 183.899C958.466 182.234 955.755 181.244 952.815 181.244V182.703C955.422 182.703 957.823 183.58 959.741 185.055L960.63 183.899Z" fill="#0BF2F6"/>
<g filter="url(#filter9_f_735_9522)">
<path fill-rule="evenodd" clip-rule="evenodd" d="M865.306 172.908C865.306 169.526 866.494 166.654 868.87 164.294C871.246 161.934 874.109 160.754 877.46 160.754C880.81 160.754 883.673 161.934 886.049 164.294C888.425 166.654 889.614 169.526 889.614 172.908C889.614 176.291 888.425 179.162 886.049 181.522C883.673 183.882 880.81 185.062 877.46 185.062C874.109 185.062 871.246 183.882 868.87 181.522C866.494 179.162 865.306 176.291 865.306 172.908Z" stroke="#0BF2F6" stroke-width="7.77899" stroke-linecap="round"/>
</g>
<path d="M877.23 192.903L876.714 193.418L877.23 193.934L877.745 193.418L877.23 192.903ZM867.145 182.818L866.63 183.334H866.63L867.145 182.818ZM887.314 182.818L887.83 183.334L887.314 182.818ZM886.798 182.303L876.714 192.387L877.745 193.418L887.83 183.334L886.798 182.303ZM877.745 192.387L867.661 182.303L866.63 183.334L876.714 193.418L877.745 192.387ZM867.661 182.303C862.376 177.018 862.376 168.45 867.661 163.165L866.63 162.134C860.775 167.988 860.775 177.48 866.63 183.334L867.661 182.303ZM886.798 163.165C892.083 168.45 892.083 177.018 886.798 182.303L887.83 183.334C893.684 177.48 893.684 167.988 887.83 162.134L886.798 163.165ZM887.83 162.134C881.976 156.28 872.484 156.28 866.63 162.134L867.661 163.165C872.946 157.881 881.514 157.881 886.798 163.165L887.83 162.134Z" fill="#0BF2F6"/>
<rect x="884.363" y="165.783" width="13.5432" height="13.5432" rx="6.77162" transform="rotate(90 884.363 165.783)" stroke="#0BF2F6" stroke-width="1.45856" stroke-linecap="round"/>
<path d="M877.709 182.808V183.537V182.808ZM869.894 184.733C869.575 184.979 869.515 185.437 869.761 185.756C870.006 186.075 870.464 186.135 870.783 185.889L869.894 184.733ZM884.636 185.889C884.955 186.135 885.413 186.075 885.658 185.756C885.904 185.437 885.844 184.979 885.525 184.733L884.636 185.889ZM870.783 185.889C872.701 184.414 875.102 183.537 877.709 183.537V182.079C874.769 182.079 872.058 183.069 869.894 184.733L870.783 185.889ZM885.525 184.733C883.361 183.069 880.65 182.079 877.709 182.079V183.537C880.317 183.537 882.718 184.414 884.636 185.889L885.525 184.733Z" fill="#0BF2F6"/>
<g filter="url(#filter10_f_735_9522)">
<path fill-rule="evenodd" clip-rule="evenodd" d="M940.53 97.854C940.53 94.4713 941.718 91.6 944.095 89.24C946.471 86.88 949.334 85.7 952.684 85.7C956.034 85.7 958.898 86.88 961.274 89.24C963.65 91.6 964.838 94.4713 964.838 97.854C964.838 101.237 963.65 104.108 961.274 106.468C958.898 108.828 956.034 110.008 952.684 110.008C949.334 110.008 946.471 108.828 944.095 106.468C941.718 104.108 940.53 101.237 940.53 97.854Z" stroke="#0BF2F6" stroke-width="7.77899" stroke-linecap="round"/>
</g>
<path d="M952.454 117.848L951.939 118.364L952.454 118.88L952.97 118.364L952.454 117.848ZM942.37 107.764L941.854 108.28L942.37 107.764ZM962.539 107.764L963.054 108.28L962.539 107.764ZM962.023 107.248L951.939 117.333L952.97 118.364L963.054 108.28L962.023 107.248ZM952.97 117.333L942.886 107.248L941.854 108.28L951.939 118.364L952.97 117.333ZM942.886 107.248C937.601 101.964 937.601 93.3956 942.886 88.111L941.854 87.0796C936 92.9339 936 102.425 941.854 108.28L942.886 107.248ZM962.023 88.111C967.308 93.3956 967.308 101.964 962.023 107.248L963.054 108.28C968.909 102.425 968.909 92.9339 963.054 87.0796L962.023 88.111ZM963.054 87.0796C957.2 81.2254 947.709 81.2254 941.854 87.0796L942.886 88.111C948.17 82.8263 956.738 82.8263 962.023 88.111L963.054 87.0796Z" fill="#0BF2F6"/>
<rect x="959.468" y="90.6778" width="13.5432" height="13.5432" rx="6.77162" transform="rotate(90 959.468 90.6778)" stroke="#0BF2F6" stroke-width="1.45856" stroke-linecap="round"/>
<path d="M952.815 107.702V108.432V107.702ZM945 109.627C944.68 109.873 944.621 110.331 944.866 110.65C945.112 110.969 945.57 111.029 945.889 110.784L945 109.627ZM959.741 110.784C960.06 111.029 960.518 110.969 960.764 110.65C961.009 110.331 960.949 109.873 960.63 109.627L959.741 110.784ZM945.889 110.784C947.807 109.308 950.208 108.432 952.815 108.432V106.973C949.875 106.973 947.164 107.963 945 109.627L945.889 110.784ZM960.63 109.627C958.466 107.963 955.755 106.973 952.815 106.973V108.432C955.422 108.432 957.823 109.308 959.741 110.784L960.63 109.627Z" fill="#0BF2F6"/>
<g filter="url(#filter11_f_735_9522)">
<path fill-rule="evenodd" clip-rule="evenodd" d="M902.545 210.449C902.545 207.067 903.733 204.195 906.109 201.835C908.486 199.475 911.349 198.295 914.699 198.295C918.049 198.295 920.912 199.475 923.288 201.835C925.665 204.195 926.853 207.067 926.853 210.449C926.853 213.832 925.665 216.703 923.288 219.063C920.912 221.423 918.049 222.603 914.699 222.603C911.349 222.603 908.486 221.423 906.109 219.063C903.733 216.703 902.545 213.832 902.545 210.449Z" stroke="#0BF2F6" stroke-width="7.77899" stroke-linecap="round"/>
</g>
<path d="M914.913 230.444L914.397 230.959L914.913 231.475L915.429 230.959L914.913 230.444ZM904.828 220.359L904.313 220.875L904.828 220.359ZM924.997 220.359L925.513 220.875L924.997 220.359ZM924.482 219.844L914.397 229.928L915.429 230.959L925.513 220.875L924.482 219.844ZM915.429 229.928L905.344 219.844L904.313 220.875L914.397 230.959L915.429 229.928ZM905.344 219.844C900.059 214.559 900.059 205.991 905.344 200.706L904.313 199.675C898.459 205.529 898.459 215.021 904.313 220.875L905.344 219.844ZM924.482 200.706C929.766 205.991 929.766 214.559 924.482 219.844L925.513 220.875C931.367 215.021 931.367 205.529 925.513 199.675L924.482 200.706ZM925.513 199.675C919.659 193.821 910.167 193.821 904.313 199.675L905.344 200.706C910.629 195.422 919.197 195.422 924.482 200.706L925.513 199.675Z" fill="#0BF2F6"/>
<rect x="921.915" y="203.336" width="13.5432" height="13.5432" rx="6.77162" transform="rotate(90 921.915 203.336)" stroke="#0BF2F6" stroke-width="1.45856" stroke-linecap="round"/>
<path d="M915.262 220.361V221.09V220.361ZM907.447 222.286C907.128 222.532 907.068 222.989 907.314 223.309C907.559 223.628 908.017 223.688 908.336 223.442L907.447 222.286ZM922.188 223.442C922.508 223.688 922.965 223.628 923.211 223.309C923.456 222.989 923.397 222.532 923.077 222.286L922.188 223.442ZM908.336 223.442C910.254 221.967 912.655 221.09 915.262 221.09V219.632C912.322 219.632 909.611 220.622 907.447 222.286L908.336 223.442ZM923.077 222.286C920.914 220.622 918.202 219.632 915.262 219.632V221.09C917.87 221.09 920.27 221.967 922.188 223.442L923.077 222.286Z" fill="#0BF2F6"/>
<g filter="url(#filter12_f_735_9522)">
<path fill-rule="evenodd" clip-rule="evenodd" d="M752.987 284.488C752.987 281.105 754.175 278.234 756.551 275.874C758.927 273.514 761.791 272.334 765.141 272.334C768.491 272.334 771.354 273.514 773.73 275.874C776.107 278.234 777.295 281.105 777.295 284.488C777.295 287.87 776.107 290.742 773.73 293.102C771.354 295.462 768.491 296.642 765.141 296.642C761.791 296.642 758.927 295.462 756.551 293.102C754.175 290.742 752.987 287.87 752.987 284.488Z" stroke="#0BF2F6" stroke-width="7.77899" stroke-linecap="round"/>
</g>
</g>
<rect x="160.879" y="117.347" width="195" height="6.91535" rx="3.14873" fill="white" fill-opacity="0.2"/>
<rect x="160.879" y="117.347" width="109.052" height="6.91535" rx="3.14873" fill="#834BFF"/>
<rect x="160.879" y="117.347" width="195.035" height="6.91535" rx="3.14873" fill="#1293FF"/>
<path fill-rule="evenodd" clip-rule="evenodd" d="M349.189 127.187C352.884 127.187 355.88 124.191 355.88 120.496C355.88 116.8 352.884 113.805 349.189 113.805C345.493 113.805 342.498 116.8 342.498 120.496C342.498 124.191 345.493 127.187 349.189 127.187Z" fill="white"/>
<g clip-path="url(#clip0_735_9522)">
<path d="M154.945 95.288C154.945 91.1211 158.323 87.743 162.49 87.743H188.143C192.31 87.743 195.688 91.1211 195.688 95.288V95.288C195.688 99.455 192.31 102.833 188.143 102.833H162.49C158.323 102.833 154.945 99.455 154.945 95.288V95.288Z" fill="white" fill-opacity="0.2"/>
<rect x="170.125" y="87.743" width="25.563" height="15.09" rx="7.545" fill="#13CFFF"/>
</g>
<g clip-path="url(#clip1_735_9522)">
<path d="M201.479 220.455C201.479 216.288 204.857 212.91 209.024 212.91H249.767C253.934 212.91 257.312 216.288 257.312 220.455V220.455C257.312 224.622 253.934 228 249.767 228H209.024C204.857 228 201.479 224.622 201.479 220.455V220.455Z" fill="white" fill-opacity="0.2"/>
<rect x="231.749" y="212.91" width="25.563" height="15.09" rx="7.545" fill="#9200FF"/>
</g>
<rect x="210.779" y="91.8928" width="52.0605" height="6.036" rx="3.018" fill="white" fill-opacity="0.2"/>
<path fill-rule="evenodd" clip-rule="evenodd" d="M217.192 101.324C220.734 101.324 223.605 98.4527 223.605 94.9108C223.605 91.3688 220.734 88.4975 217.192 88.4975C213.65 88.4975 210.779 91.3688 210.779 94.9108C210.779 98.4527 213.65 101.324 217.192 101.324Z" fill="white"/>
<g clip-path="url(#clip2_735_9522)">
<path d="M171.052 65.4019C171.052 61.2349 174.43 57.8569 178.597 57.8569H281.964C286.131 57.8569 289.509 61.2349 289.509 65.4019V65.4019C289.509 69.5689 286.131 72.9469 281.964 72.9469H178.597C174.43 72.9469 171.052 69.5689 171.052 65.4019V65.4019Z" fill="white" fill-opacity="0.2"/>
<rect x="171.052" y="57.8569" width="30.3175" height="15.09" rx="7.545" fill="white" fill-opacity="0.5"/>
</g>
<path fill-rule="evenodd" clip-rule="evenodd" d="M218.585 135.232C212.752 135.232 208.022 139.961 208.022 145.795C208.022 151.628 212.752 156.358 218.585 156.358C224.419 156.358 229.148 151.628 229.148 145.795C229.148 139.961 224.419 135.232 218.585 135.232ZM224.621 145.795C224.621 144.961 223.946 144.286 223.112 144.286H214.058C213.225 144.286 212.549 144.961 212.549 145.795C212.549 146.628 213.225 147.304 214.058 147.304H223.112C223.946 147.304 224.621 146.628 224.621 145.795Z" fill="white" fill-opacity="0.6"/>
<path fill-rule="evenodd" clip-rule="evenodd" d="M254.802 135.232C248.968 135.232 244.239 139.961 244.239 145.795C244.239 151.629 248.968 156.358 254.802 156.358C260.636 156.358 265.365 151.629 265.365 145.795C265.365 139.961 260.636 135.232 254.802 135.232ZM253.293 141.268C253.293 140.434 253.968 139.759 254.802 139.759C255.635 139.759 256.311 140.434 256.311 141.268V144.286H259.329C260.162 144.286 260.838 144.961 260.838 145.795C260.838 146.628 260.162 147.304 259.329 147.304H256.311V150.322C256.311 151.155 255.635 151.831 254.802 151.831C253.968 151.831 253.293 151.155 253.293 150.322V147.304H250.275C249.441 147.304 248.766 146.628 248.766 145.795C248.766 144.961 249.441 144.286 250.275 144.286H253.293V141.268Z" fill="white" fill-opacity="0.6"/>
<rect x="147.346" y="168.164" width="232" height="6.2095" rx="3.018" fill="white" fill-opacity="0.2"/>
<rect x="147.346" y="168.164" width="129.527" height="6.2095" rx="3.018" fill="#834BFF"/>
<path fill-rule="evenodd" clip-rule="evenodd" d="M273.691 177.596C277.233 177.596 280.104 174.724 280.104 171.182C280.104 167.64 277.233 164.769 273.691 164.769C270.149 164.769 267.278 167.64 267.278 171.182C267.278 174.724 270.149 177.596 273.691 177.596Z" fill="white"/>
<path fill-rule="evenodd" clip-rule="evenodd" d="M173.731 182.765C167.897 182.765 163.168 187.495 163.168 193.328C163.168 199.162 167.897 203.891 173.731 203.891C179.565 203.891 184.294 199.162 184.294 193.328C184.294 187.495 179.565 182.765 173.731 182.765ZM172.222 188.801C172.222 187.968 172.898 187.292 173.731 187.292C174.564 187.292 175.24 187.968 175.24 188.801V191.819H178.258C179.091 191.819 179.767 192.495 179.767 193.328C179.767 194.162 179.091 194.837 178.258 194.837H175.24V197.855C175.24 198.689 174.564 199.364 173.731 199.364C172.898 199.364 172.222 198.689 172.222 197.855V194.837H169.204C168.371 194.837 167.695 194.162 167.695 193.328C167.695 192.495 168.371 191.819 169.204 191.819H172.222V188.801Z" fill="white" fill-opacity="0.6"/>
<rect x="199.384" y="189.933" width="89.0311" height="6.036" rx="3.018" fill="white" fill-opacity="0.2"/>
<path fill-rule="evenodd" clip-rule="evenodd" d="M205.797 199.364C209.339 199.364 212.21 196.493 212.21 192.951C212.21 189.409 209.339 186.538 205.797 186.538C202.255 186.538 199.384 189.409 199.384 192.951C199.384 196.493 202.255 199.364 205.797 199.364Z" fill="white"/>
<rect x="267.552" y="36.018" width="41.4975" height="6.036" rx="3.018" fill="white" fill-opacity="0.2"/>
<path fill-rule="evenodd" clip-rule="evenodd" d="M273.965 45.4492C277.507 45.4492 280.378 42.5779 280.378 39.036C280.378 35.4941 277.507 32.6227 273.965 32.6227C270.423 32.6227 267.552 35.4941 267.552 39.036C267.552 42.5779 270.423 45.4492 273.965 45.4492Z" fill="white"/>
<g clip-path="url(#clip3_735_9522)">
<path d="M280.455 145.795C280.455 141.628 283.833 138.25 288 138.25H313.653C317.82 138.25 321.198 141.628 321.198 145.795V145.795C321.198 149.962 317.82 153.34 313.653 153.34H288C283.833 153.34 280.455 149.962 280.455 145.795V145.795Z" fill="white" fill-opacity="0.2"/>
<rect x="295.635" y="138.25" width="25.563" height="15.09" rx="7.545" fill="#1293FF"/>
</g>
<rect x="148.142" y="142.164" width="40.9619" height="7.1238" rx="3.5619" fill="white" fill-opacity="0.2"/>
<path fill-rule="evenodd" clip-rule="evenodd" d="M155.711 153.295C159.891 153.295 163.28 149.907 163.28 145.726C163.28 141.546 159.891 138.157 155.711 138.157C151.531 138.157 148.142 141.546 148.142 145.726C148.142 149.907 151.531 153.295 155.711 153.295Z" fill="white"/>
<rect opacity="0.1" x="23.9565" y="36.1842" width="47.7637" height="47.7637" rx="23.8819" fill="white"/>
<rect x="27.937" y="40.1646" width="39.8031" height="39.8031" rx="19.9015" fill="white"/>
<g clip-path="url(#clip4_735_9522)">
<path d="M51.8984 48.5504C51.8984 48.5504 57.0219 50.8277 57.0219 54.1866C57.0219 57.5459 57.3074 56.692 57.0219 57.9445C56.7374 59.197 56.8515 61.1325 56.8515 61.1325C56.8515 61.1325 57.3902 60.2786 57.1497 62.2714C56.9083 64.2636 57.6486 65.0608 56.9656 65.6302C56.2821 66.1997 56.282 66.1997 56.282 66.1997C56.282 66.1997 56.0544 68.5905 55.5422 69.3876C55.0296 70.1853 56.0544 72.4052 56.9656 73.3727C57.8768 74.3407 59.5841 75.5364 61.1784 76.1626C62.7721 76.7894 65.7897 76.903 66.7009 77.5292C67.6121 78.1555 69.2626 79.3511 70.2306 79.6356C71.1987 79.9206 74.8988 81.7425 75.1837 84.4751C75.4687 87.2077 77.4037 90.9084 77.1766 95.5765C76.9489 100.245 77.4042 105.597 76.778 108.273C76.1512 110.948 76.1512 112.144 74.8414 113.795C73.5327 115.446 73.305 116.87 72.7929 117.097C72.2802 117.325 72.4511 118.919 72.4511 118.919H68.1243C68.1243 118.919 68.4087 121.425 67.7257 125.523C67.0427 129.622 65.9606 131.216 66.0174 134.006C66.0752 136.796 66.8718 136.739 67.5548 140.269C68.2378 143.799 68.352 143.97 68.7505 147.385C69.1491 150.801 70.5719 153.079 70.7433 158.544C70.9137 164.01 71.8254 169.76 71.5972 175.567C71.369 181.374 72.6788 186.611 72.7361 191.337C72.7929 196.063 73.9881 200.446 73.6463 206.595C73.305 212.744 73.9881 214.908 73.6463 220.771C73.305 226.635 72.4511 229.198 73.0206 231.703C73.5895 234.207 75.6391 236.427 76.4362 238.25C77.2333 240.072 78.1812 243.26 77.1946 244C76.2085 244.739 72.0526 245.082 69.8883 243.487C67.7257 241.894 66.4159 241.324 66.4159 240.185C66.4159 239.046 65.8321 238.363 64.7569 238.25C63.6833 238.136 61.5764 237.281 61.5196 235.061C61.4628 232.841 61.8046 231.247 61.4066 230.507C61.0075 229.767 59.9827 230.451 59.9264 226.749C59.8691 223.048 60.3812 219.576 59.8691 216.501C59.357 213.427 59.1856 211.719 59.1856 208.417C59.1856 205.115 59.0147 200.276 58.7302 195.664C58.4458 191.052 58.2754 192.418 57.819 189.117C57.3636 185.815 57.3636 180.69 57.0219 177.047C56.6806 173.403 56.4529 172.834 55.599 170.044C54.7451 167.254 52.4673 160.935 51.6139 159.853C50.7595 158.772 50.6459 160.708 50.4183 166.514C50.1906 172.322 52.5246 177.502 51.4431 183.366C50.3615 189.231 51.045 187.75 51.1581 191.394C51.2722 195.038 52.1261 203.691 52.1261 208.758C52.1261 213.826 52.6955 212.629 53.4927 214.85C54.2898 217.07 55.2578 220.202 54.3466 222.878C53.4348 225.553 52.6955 225.724 52.6955 227.774C52.6955 229.823 52.8091 232.442 51.2149 233.069C49.6217 233.695 49.6779 232.954 48.7672 234.833C47.8565 236.712 42.3345 239.958 40.1703 239.331C38.0076 238.705 37.8362 238.022 38.2921 236.029C38.7469 234.036 41.7651 231.588 42.2204 228.514C42.6758 225.44 43.5291 226.066 42.5043 223.504C41.4801 220.942 42.2772 222.023 41.3092 218.892C40.3412 215.761 39.2023 215.533 38.9178 212.345C38.6334 209.157 37.9503 204.944 37.3809 200.902C36.812 196.859 36.242 184.961 35.559 180.805C34.8754 176.649 33.5667 168.507 32.656 163.099C31.7442 157.691 31.2889 149.947 30.7768 144.14C30.2641 138.333 30.4923 137.764 30.7768 135.259C31.0612 132.754 30.7767 131.9 31.1185 129.167C31.4598 126.434 31.2884 127.231 31.9156 125.181C32.5419 123.132 32.5981 120.172 32.5981 120.172C32.5981 120.172 31.6874 120.342 30.0364 120.513C28.3854 120.684 28.1577 121.766 27.3606 119.887C26.5635 118.008 25.7669 117.382 25.0838 113.682C24.4003 109.981 24.9692 101.441 25.0838 97.2848C25.1974 93.1288 24.4003 86.2403 27.1329 83.963C29.8655 81.6852 32.9405 79.9774 35.559 78.9526C38.178 77.9278 39.5441 77.4724 40.8533 76.7889C42.1631 76.1059 43.259 75.0667 43.5153 73.9565C43.7764 72.8261 43.63 71.5051 43.138 70.4533C42.8185 69.7703 42.8015 68.5443 42.1578 68.0688C42.1583 68.5003 41.4933 68.5374 41.2614 68.2795C41.0014 67.9903 40.8894 67.4373 40.7307 67.0828C40.4372 66.4279 40.2318 65.6461 39.8243 65.0523C39.4793 64.5486 39.0404 64.2085 39.0744 63.5382C39.0935 63.1752 39.1057 62.7724 39.5451 62.7256C39.8354 62.6954 40.165 62.9645 40.1857 63.2686C39.9898 62.4624 39.4289 61.7502 39.1853 60.942C38.9481 60.1539 38.7092 59.3663 38.5097 58.5676C38.0761 56.8306 37.7009 54.8871 38.178 53.1193C38.904 50.4291 46.206 42.3162 51.7986 48.5504" fill="url(#paint1_linear_735_9522)"/>
</g>
<rect opacity="0.1" x="22.3643" y="104.646" width="47.7637" height="47.7637" rx="23.8819" fill="white"/>
<rect x="26.3447" y="108.626" width="39.8031" height="39.8031" rx="19.9015" fill="white"/>
<g clip-path="url(#clip5_735_9522)">
<path d="M51.9368 117.323C51.9368 117.323 54.7623 118.541 54.6646 120.781C54.5675 123.022 54.8159 125.799 54.6668 126.627C54.5187 127.455 55.2489 128.965 54.9565 129.501C54.9565 129.501 55.8826 128.965 55.5907 130.572C55.2978 132.18 55.1518 133.496 54.9565 134.226C54.7623 134.957 54.2348 135.688 53.7921 135.249C53.7921 135.249 53.9827 136.127 53.3495 136.955C52.7159 137.782 53.0083 139.828 54.1774 141.631C55.3466 143.433 57.8797 145.04 60.5587 145.966C63.2382 146.892 71.8118 149.133 71.7147 151.13C71.617 153.127 71.7147 152.883 71.9578 154.93C72.2014 156.976 73.5164 158.048 73.2245 159.655C72.9321 161.263 73.0165 164.381 73.2665 166.621C73.5164 168.862 74.3449 180.552 74.1989 184.158C74.0525 187.762 73.9065 201.305 73.6146 203.887C73.3222 206.468 72.0554 213.045 71.763 214.02C71.4711 214.993 71.4711 214.993 71.4711 214.993C71.4711 214.993 70.3991 213.045 70.3991 213.191C70.3991 213.337 70.2043 215.237 69.8631 216.747C69.5223 218.257 69.7665 218.209 68.4997 219.426C67.2329 220.644 64.0348 223.275 63.0764 223.08C63.0764 223.08 62.751 223.275 62.5563 225.71C62.3615 228.146 62.508 235.551 62.1667 239.594C61.8255 243.637 62.8487 258.494 61.7766 261.904C60.7051 265.315 60.6563 266.972 60.4133 270.137C60.1697 273.304 60.1203 285.677 60.3639 288.307C60.608 290.937 60.218 291.668 59.6819 292.935C59.1465 294.202 59.2441 293.665 60.0232 294.835C60.8028 296.004 61.29 298.585 60.9976 299.657C60.7052 300.729 59.4383 301.996 54.9565 301.363C50.4752 300.729 50.2804 300.729 50.0857 299.073C49.8909 297.417 49.9397 297.612 49.5014 297.417C49.0625 297.221 48.9654 297.612 48.9654 295.955C48.9654 294.299 49.452 294.153 48.9654 293.52C48.4782 292.887 45.9939 290.402 45.9451 287.819C45.8963 285.238 45.7498 281.634 45.9451 279.734C46.1399 277.834 46.1399 261.125 46.1399 258.202C46.1399 255.28 45.8453 241.055 45.8464 237.841C45.848 234.626 45.0678 231.411 44.9702 229.072C44.8731 226.734 44.1423 222.106 44.1423 222.106C44.1423 222.106 42.5836 226.441 41.415 232.287C40.2453 238.132 39.1255 238.279 38.9302 248.313C38.7354 258.349 38.2477 266.776 37.8587 270.381C37.4686 273.985 36.3971 278.857 35.6663 281.78C34.9356 284.703 34.7896 284.703 34.7413 287.918C34.692 291.133 34.7413 293.958 34.7413 294.981C34.7413 296.004 35.8664 297.758 34.7196 298.196C33.5716 298.634 29.3822 298.245 27.2387 298.878C25.0957 299.512 11.2628 301.751 9.50774 299.269C8.48666 297.824 9.73436 296.661 11.1158 296.479C12.8342 296.254 14.5633 295.909 16.1809 295.273C18.8408 294.228 18.7219 294.898 19.0748 292.583C19.0844 292.524 19.0939 292.462 19.1035 292.398C19.1035 292.398 18.8116 290.548 19.5907 287.528C20.3697 284.507 20.029 286.262 20.3214 283.679C20.6133 281.097 21.1011 271.551 21.393 268.822C21.6859 266.094 22.0749 260.492 22.5626 258.544C23.0498 256.595 24.2184 245.342 24.2673 242.565C24.3161 239.788 23.3422 232.677 23.5853 228.293C23.8289 223.909 23.7806 222.35 23.7806 222.35C23.7806 222.35 22.3673 222.349 20.9063 220.352C19.4447 218.355 19.0064 219.134 18.7628 217.283C18.5197 215.431 17.7884 213.776 17.7884 212.704C17.7884 212.704 16.6675 213.094 16.5704 212.363C16.4733 211.633 16.1809 200.282 16.4733 196.434C16.7657 192.586 16.8628 191.66 16.9599 190.247C17.0581 188.834 18.1779 181.625 18.422 178.313C18.6656 174.999 19.0064 169.787 19.6883 167.011C20.3703 164.234 20.7115 163.406 20.8575 162.09C21.0034 160.775 21.2958 157.901 21.783 156.731C22.2702 155.563 22.4167 155.368 22.4655 154.004C22.5138 152.64 22.8545 149.522 24.0237 149.279C25.1928 149.035 32.8408 146.405 34.8867 145.382C36.9331 144.359 38.4913 143.774 39.1738 142.41C39.8558 141.046 40.586 139.731 40.1482 138.903C39.7093 138.075 38.9302 136.955 38.589 136.029C38.589 136.029 37.6639 135.98 37.3715 134.226C37.0791 132.473 36.4948 128.478 37.6151 129.062C37.6151 129.062 37.5663 128.77 37.5663 125.068C37.5663 121.366 37.5992 117.81 41.6745 116.202C45.7498 114.594 50.6705 115.52 51.9368 117.323Z" fill="#1293FF"/>
</g>
<rect opacity="0.1" x="22.3643" y="175.495" width="47.7637" height="47.7637" rx="23.8819" fill="white"/>
<rect x="26.3447" y="179.475" width="39.8031" height="39.8031" rx="19.9015" fill="white"/>
<g clip-path="url(#clip6_735_9522)">
<path d="M58.734 241.396C59.1687 241.342 59.1687 241.505 60.1457 240.581C61.1235 239.658 60.906 237.214 61.9384 235.314C62.9703 233.413 63.1333 232.001 63.7302 227.711C64.3274 223.421 63.8932 219.293 63.35 217.067C62.8068 214.841 62.3726 215.166 60.6353 214.46C58.897 213.755 58.4083 213.32 58.4083 213.32L58.7885 212.831C60.2547 210.387 58.3543 206.64 57.7566 205.066C57.1589 203.491 56.8336 203.328 56.562 201.916C56.2904 200.504 56.6706 199.689 56.2359 197.245C55.8017 194.802 55.5301 194.585 53.7378 190.294C51.946 186.004 47.8728 186.222 47.8728 186.222C41.1025 185.37 38.4241 192.068 37.627 194.747C36.8303 197.427 36.6859 200.54 36.2512 203.002C35.817 205.464 34.8754 205.826 34.2963 207.708C33.7168 209.59 34.6583 210.967 34.4412 212.56C34.2241 214.153 33.7894 212.922 31.6897 214.949C29.5904 216.977 29.3546 219.402 29.2456 222.606C29.1375 225.809 28.3506 229.61 28.3502 229.612C28.2824 229.941 28.2815 230.29 28.2239 230.623C28.1752 230.902 27.9957 231.281 28.0666 231.557C27.5748 231.701 27.1592 231.601 26.9642 232.191C26.8623 232.499 27.0595 233.314 27.5061 233.326C27.3032 233.321 27.091 233.345 26.9363 233.488C26.7724 233.642 26.6089 233.927 26.5641 234.146C26.4237 234.835 26.8889 234.753 27.2248 235.141C27.1215 235.022 26.7219 235.365 26.6643 235.436C26.522 235.61 26.4525 235.844 26.444 236.067C26.4197 236.761 26.8796 236.778 27.3488 237.076C27.0945 237.077 26.8264 237.069 26.7214 237.35C26.5938 237.688 26.7888 238.137 27.0205 238.382C27.363 238.744 27.9904 239.134 28.4539 239.31C28.4831 239.809 28.4791 240.236 28.5744 240.72C28.6825 241.275 28.6851 241.865 28.7574 242.428C28.9745 244.111 33.2103 243.677 34.2427 243.46C35.2738 243.242 34.0252 245.795 34.1882 247.532C34.3508 249.27 33.9707 249.65 33.9707 249.65L33.6446 249.813C33.6446 249.813 34.0252 252.909 33.4824 253.832C32.9387 254.755 31.146 256.438 30.2771 257.471C29.4092 258.502 30.7118 260.294 30.6582 263.118C30.6037 265.942 29.7348 269.309 29.2456 272.947C28.7574 276.586 28.4308 281.148 28.1056 283.102C27.7795 285.058 27.3998 288.045 27.7795 289.999C28.1597 291.954 27.5628 292.878 27.8885 296.733C28.2137 300.589 27.8344 304.608 27.7795 308.083C27.725 311.558 27.3457 322.963 27.1286 326.602C26.9115 330.24 26.53 338.06 26.6395 339.744C26.7476 341.427 26.7476 342.025 26.8025 342.405C26.857 342.785 26.3678 342.839 26.3678 342.839C24.9558 343.057 23.4896 343.762 23.8148 344.359C24.1409 344.957 26.53 344.74 30.0609 344.706C33.5905 344.672 33.4274 343.328 33.5905 342.676C33.7536 342.025 33.8076 342.242 35.2738 342.025C36.7399 341.807 37.4458 341.535 37.4458 341.535V342.948H38.3696L38.4232 341.319C38.4232 341.319 39.9438 340.775 40.378 339.853C40.814 338.929 40.4325 333.987 39.9988 329.643C39.5641 325.299 38.2606 319.596 37.9863 313.406C37.7116 307.214 37.3926 302.544 37.2286 300.535C37.0665 298.526 38.0439 298.145 38.4777 297.168C38.9128 296.191 38.8042 294.778 38.4232 293.692C38.0439 292.606 37.8264 292.443 38.4232 291.357C39.0214 290.271 38.4232 290.162 39.6186 287.827C40.8141 285.492 42.9311 278.161 44.1801 275.88C45.4296 273.599 45.6467 272.893 45.6467 272.893C45.6467 272.893 45.972 273.545 46.147 274.305C46.322 275.065 46.5697 275.554 47.1133 277.075C47.6561 278.595 47.8728 284.352 48.3074 287.773C48.7416 291.194 49.1223 294.778 49.1763 296.842C49.2304 298.906 49.3389 299.503 50.0456 300.97C50.751 302.435 49.8821 302.49 49.611 304.445C49.3389 306.4 49.2304 313.243 49.5024 315.523C49.7731 317.804 48.7416 319.27 48.1448 321.171C47.5475 323.071 47.6012 326.764 47.3304 328.231C47.0584 329.697 47.3845 330.783 46.8408 332.63C46.2985 334.476 46.4066 337.245 46.2954 340.07C46.1842 342.893 46.0265 342.188 46.2954 342.242C46.5644 342.296 47.8728 342.025 47.8728 342.025C47.8728 342.025 47.7642 342.35 46.8958 343.165C46.0264 343.979 45.9719 344.686 47.6012 344.686C49.2304 344.686 51.7834 344.848 52.8694 344.252C53.9549 343.654 53.9009 342.785 53.9009 342.785H55.367C55.9107 342.676 56.3994 339.092 56.8336 335.616C57.2678 332.141 57.3768 330.838 57.7025 326.982C58.0282 323.125 58.0822 321.66 58.6799 314.274C59.2777 306.888 58.9511 302.49 59.0056 297.114C59.0601 291.737 60.4177 287.393 60.2547 285.004C60.092 282.614 60.5799 281.962 61.4492 279.464C62.3181 276.966 61.5582 275.717 61.9384 272.947C62.3181 270.178 62.2645 267.3 62.2645 264.042C62.2645 260.783 61.8839 258.611 60.5799 255.027C59.2777 251.443 58.843 248.13 58.843 248.13C59.1687 245.632 58.4628 245.904 58.4083 244.057C58.3543 242.21 58.2998 241.45 58.734 241.396Z" fill="#9200FF"/>
</g>
<rect opacity="0.1" x="80.4766" y="70.4149" width="47.7637" height="47.7637" rx="23.8819" fill="white"/>
<rect x="84.457" y="74.3951" width="39.8031" height="39.8031" rx="19.9015" fill="white"/>
<g clip-path="url(#clip7_735_9522)">
<path fill-rule="evenodd" clip-rule="evenodd" d="M97.9694 102.373C97.9694 102.373 97.3471 102.992 96.7248 102.496C96.1044 102 94.736 98.8989 94.736 98.8989V97.1621L94.6122 96.2932L93.7422 95.4253C93.7422 95.4253 92.3737 93.9356 93.3676 91.0828C94.3625 88.23 95.9807 85.128 97.2243 84.2601C98.4669 83.3912 100.705 82.6479 100.705 82.6479L102.074 82.2752L103.815 82.1506C103.815 82.1506 104.063 81.5299 106.551 82.6479C109.038 83.7629 110.033 84.7573 111.898 86.6167C113.764 88.4771 114.261 88.7262 114.385 90.0903C114.511 91.4545 114.385 93.0687 114.385 93.0687C114.385 93.0687 114.135 94.0612 114.635 95.0526C115.131 96.0461 115.754 95.797 114.883 97.1621C114.012 98.5262 113.143 99.5187 113.143 99.5187L112.147 100.51C112.147 100.51 111.649 99.8904 111.649 100.884C111.649 101.875 111.153 103.241 111.153 103.241L111.649 108.451C111.649 108.451 112.023 108.824 113.391 109.072C114.759 109.32 116.749 110.56 118.738 110.56C120.727 110.56 121.102 110.56 121.102 110.56C121.102 110.56 122.71 111.644 121.093 112.141C119.477 112.638 119.587 113.056 120.58 113.676C121.576 114.296 122.096 114.157 122.096 114.157C122.096 114.157 124.708 114.53 126.2 115.771C127.692 117.011 130.802 122.717 130.802 123.462C130.802 124.206 132.542 125.075 132.046 125.943C131.547 126.811 131.423 127.308 131.423 127.308C131.423 127.308 131.547 128.301 132.294 129.417C133.04 130.533 134.284 134.255 134.657 135.372C135.029 136.488 134.905 137.109 135.528 138.844C136.149 140.581 136.273 142.567 135.9 143.063C135.528 143.559 135.775 144.8 135.153 146.289C134.532 147.777 135.029 148.522 134.034 149.266C133.04 150.01 130.926 150.755 130.926 150.755L130.055 150.879C130.055 150.879 130.18 153.483 130.552 155.097C130.926 156.709 130.552 159.316 131.796 162.788C133.04 166.262 134.034 172.713 134.034 172.713C134.034 172.713 133.288 174.573 132.168 175.69C131.05 176.807 125.703 178.419 125.703 178.419C125.703 178.419 126.573 196.904 125.951 199.509C125.329 202.114 124.956 203.728 124.334 204.1C123.712 204.472 124.832 210.923 124.459 212.411C124.086 213.9 123.712 217.993 123.712 217.993L124.086 220.724L125.205 221.964L125.453 224.568C125.453 224.568 125.205 231.764 124.334 234.244C123.464 236.727 123.837 237.471 123.837 238.588C123.837 239.704 122.344 244.543 122.344 244.543L123.215 251.489L124.334 252.854C124.334 252.854 127.816 255.335 129.061 256.204C130.303 257.072 133.91 259.553 133.91 259.553C133.91 259.553 135.402 260.794 135.279 261.662C135.153 262.531 134.284 263.77 134.284 263.77C134.284 263.77 131.298 266.003 126.821 264.639C122.344 263.275 115.38 259.553 115.38 259.553L111.277 257.445L110.406 256.328L110.282 255.335L110.903 254.591L111.525 254.095V252.979C111.525 252.979 110.158 251.365 109.908 250.248C109.66 249.133 109.535 230.772 109.784 228.167C110.033 225.561 110.158 223.576 110.406 222.831C110.654 222.089 110.903 221.467 110.903 221.467L110.529 219.856V218.366L111.649 215.264C111.649 215.264 109.038 205.216 109.038 202.983C109.038 200.749 108.541 193.058 108.541 193.058L107.047 187.972L106.551 186.359C106.551 186.359 105.68 187.599 104.935 188.469C104.188 189.336 104.685 190.204 103.566 192.686C102.446 195.168 99.9592 202.363 99.9592 202.363L97.9694 210.179L96.2284 227.795L93.1188 251.489C93.1188 251.489 93.1188 253.722 93.1188 254.466C93.1188 255.211 91.2539 257.94 91.129 258.809C91.0061 259.678 92.0001 260.298 90.7564 261.662C89.5128 263.027 89.1403 265.012 87.7718 264.888C86.4043 264.764 81.0563 264.639 80.1862 263.398C79.3162 262.157 79.9365 255.335 79.9365 255.335L80.8085 254.095V246.651L85.6581 209.806L85.2855 204.968L84.7871 196.655L85.783 179.908L86.2794 177.302L85.4094 176.063L83.046 175.442L83.9171 169.86L87.7718 151.25L86.1556 148.895L84.1658 135.744L86.1556 118.996C86.1556 118.996 89.2651 116.143 90.5087 115.522C91.7523 114.901 94.4873 113.041 94.4873 113.041L95.8558 111.428C95.8558 111.428 98.0943 109.443 98.8405 109.072C99.5856 108.7 99.7115 108.451 99.7115 108.451C99.7115 108.451 99.213 105.97 99.0892 104.977C98.9652 103.985 97.9694 102.373 97.9694 102.373Z" fill="#13CFFF"/>
</g>
<rect opacity="0.1" x="79.6807" y="140.468" width="47.7637" height="47.7637" rx="23.8819" fill="white"/>
<rect x="83.6611" y="144.449" width="39.8031" height="39.8031" rx="19.9015" fill="white"/>
<g clip-path="url(#clip8_735_9522)">
<path fill-rule="evenodd" clip-rule="evenodd" d="M96.6713 170.511C96.6713 170.511 95.8074 170.044 95.2042 169.525C94.6029 169.005 94.0101 166.738 94.0101 166.738L93.6358 165.183L93.5447 164.31L92.7079 163.41C92.7079 163.41 91.3011 160.303 92.4014 157.489C93.5027 154.676 95.3314 153.204 96.6067 152.383C97.8811 151.561 100.146 150.903 100.146 150.903L101.527 150.582L103.272 150.522C103.272 150.522 106.106 150.512 108.551 151.723C110.994 152.93 110.202 153.509 111.996 155.437C113.791 157.366 113.968 157.333 114.04 158.7C115.013 159.932 114.924 162.318 114.924 162.318C115.383 163.33 114.69 164.607 113.768 165.939C112.847 167.269 111.941 168.228 111.941 168.228L110.908 169.182C110.908 169.182 110.435 168.544 110.397 169.537C110.36 170.527 109.813 171.874 109.813 171.874L110.113 177.098C110.113 177.098 110.473 177.485 111.831 177.784C113.188 178.083 115.13 179.398 117.118 179.472C119.106 179.547 119.48 179.561 119.48 179.561C119.48 179.561 121.047 180.705 119.412 181.141C117.778 181.576 117.872 181.998 118.842 182.655C119.814 183.312 120.338 183.193 120.338 183.193C120.338 183.193 122.934 183.664 124.379 184.959C125.824 186.255 128.717 192.073 128.689 192.818C128.661 193.561 130.367 194.495 129.838 195.344C129.308 196.193 129.165 196.684 129.165 196.684C129.165 196.684 129.252 197.682 129.957 198.825C130.66 199.968 131.763 203.734 132.094 204.864C132.424 205.993 132.277 206.609 132.834 208.367C133.389 210.126 133.439 212.115 133.048 212.597C132.657 213.078 132.858 214.328 132.18 215.792C131.503 217.255 131.972 218.019 130.95 218.725C129.929 219.431 127.788 220.096 127.788 220.096L126.913 220.187C126.913 220.187 126.94 222.795 127.252 224.421C127.564 226.046 127.093 228.637 128.206 232.154C129.319 235.672 130.07 242.155 130.07 242.155C130.07 242.155 129.254 243.986 128.093 245.061C126.934 246.135 121.53 247.545 121.53 247.545C121.53 247.545 121.705 266.049 120.987 268.629C120.267 271.209 119.834 272.808 119.198 273.156C118.562 273.504 119.439 279.993 119.011 281.466C118.583 282.94 118.055 287.016 118.055 287.016L118.326 289.759L119.398 291.041L119.548 293.652C119.548 293.652 119.03 300.834 118.066 303.279C117.104 305.727 117.448 306.485 117.406 307.601C117.364 308.716 115.691 313.496 115.691 313.496L116.301 320.47L117.368 321.876C117.368 321.876 120.754 324.486 121.965 325.401C123.174 326.315 126.686 328.93 126.686 328.93C126.686 328.93 128.129 330.226 127.974 331.088C127.816 331.952 126.901 333.158 126.901 333.158C126.901 333.158 123.833 335.277 119.411 333.746C114.988 332.215 108.168 328.234 108.168 328.234L104.147 325.973L103.319 324.824L103.232 323.828L103.881 323.107L104.521 322.635L104.563 321.519C104.563 321.519 103.257 319.856 103.05 318.73C102.844 317.607 103.408 299.254 103.755 296.66C104.101 294.066 104.301 292.087 104.576 291.351C104.853 290.619 105.124 290.007 105.124 290.007L104.812 288.383L104.868 286.894L106.103 283.836C106.103 283.836 103.871 273.697 103.955 271.466C104.039 269.233 103.83 261.529 103.83 261.529L102.529 256.391L102.093 254.76C102.093 254.76 101.177 255.966 100.399 256.808C99.621 257.646 100.085 258.533 98.8734 260.97C97.6612 263.409 94.9056 270.505 94.9056 270.505L92.6238 278.241L90.2226 295.78L86.2256 319.34C86.2256 319.34 86.1418 321.571 86.1139 322.315C86.0859 323.059 84.1198 325.716 83.9624 326.58C83.807 327.443 84.7769 328.101 83.483 329.417C82.189 330.734 81.7422 332.704 80.3793 332.529C79.0175 332.353 73.6779 332.028 72.855 330.755C72.0322 329.482 72.9082 322.688 72.9082 322.688L73.8262 321.481L74.1057 314.043L80.3352 277.406L80.1445 272.557L79.9585 264.232L81.5825 247.534L82.1764 244.949L81.3535 243.677L79.0151 242.968L80.0951 237.423L84.6458 218.971L83.1192 216.557L81.6245 203.34L84.2417 186.679C84.2417 186.679 87.4561 183.944 88.7222 183.371C89.9882 182.797 92.7911 181.04 92.7911 181.04L94.2192 179.481C94.2192 179.481 96.5306 177.581 97.2902 177.238C98.0488 176.894 98.184 176.65 98.184 176.65C98.184 176.65 97.779 174.152 97.6925 173.156C97.6058 172.159 96.6713 170.511 96.6713 170.511Z" fill="#834BFF"/>
</g>
<g clip-path="url(#clip9_735_9522)">
<rect x="540.093" y="37.6734" width="21.0726" height="6.48387" rx="3.24194" fill="white" fill-opacity="0.15"/>
<rect x="543.334" y="40.1049" width="11.3468" height="1.62097" fill="white" fill-opacity="0.15"/>
<rect x="556.302" y="40.1049" width="17.8306" height="1.62097" fill="white" fill-opacity="0.15"/>
</g>
<rect x="598.448" y="51.4516" width="17.8306" height="6.48387" rx="3.24194" fill="white" fill-opacity="0.15"/>
<rect x="601.69" y="53.8831" width="11.3468" height="1.62097" fill="white" fill-opacity="0.3"/>
<g clip-path="url(#clip10_735_9522)">
<rect x="364.218" y="78.1976" width="58.3548" height="6.48387" rx="3.24194" fill="white" fill-opacity="0.15"/>
<rect x="367.46" y="80.629" width="11.3468" height="1.62097" fill="white" fill-opacity="0.15"/>
<rect x="380.427" y="80.629" width="43.7661" height="1.62097" fill="white" fill-opacity="0.3"/>
</g>
<rect x="476.875" y="89.5444" width="24.3145" height="6.48387" rx="3.24194" fill="white" fill-opacity="0.15"/>
<rect x="480.117" y="91.9758" width="17.8306" height="1.62097" fill="white" fill-opacity="0.15"/>
<rect x="396.637" y="54.6935" width="24.3145" height="6.48387" rx="3.24194" fill="white" fill-opacity="0.15"/>
<rect x="399.879" y="57.125" width="17.8306" height="1.62097" fill="white" fill-opacity="0.15"/>
<rect x="611.416" y="104.133" width="25.9355" height="6.48387" rx="3.24194" fill="white" fill-opacity="0.15"/>
<rect x="614.657" y="106.565" width="19.4516" height="1.62097" fill="white" fill-opacity="0.15"/>
<g clip-path="url(#clip11_735_9522)">
<rect x="588.722" y="70.9032" width="51.0605" height="6.48387" rx="3.24194" fill="white" fill-opacity="0.15"/>
<rect x="591.963" y="73.3347" width="11.3468" height="1.62097" fill="white" fill-opacity="0.15"/>
<rect x="604.931" y="73.3347" width="17.8306" height="1.62097" fill="white" fill-opacity="0.15"/>
<rect x="624.383" y="73.3347" width="42.1452" height="1.62097" fill="white" fill-opacity="0.3"/>
</g>
<rect x="467.149" y="176.266" width="56.7339" height="6.48387" rx="3.24194" fill="white" fill-opacity="0.15"/>
<rect x="470.392" y="178.698" width="11.3468" height="1.62097" fill="white" fill-opacity="0.15"/>
<rect x="483.359" y="178.698" width="17.8306" height="1.62097" fill="white" fill-opacity="0.15"/>
<rect x="502.811" y="178.698" width="17.8306" height="1.62097" fill="white" fill-opacity="0.15"/>
<g clip-path="url(#clip12_735_9522)">
<rect x="449.319" y="32" width="21.0726" height="6.48387" rx="3.24194" fill="white" fill-opacity="0.15"/>
<rect x="452.561" y="34.4315" width="11.3468" height="1.62097" fill="white" fill-opacity="0.15"/>
<rect x="465.528" y="34.4315" width="42.1452" height="1.62097" fill="white" fill-opacity="0.3"/>
</g>
<rect x="427.436" y="199.77" width="37.2823" height="6.48387" rx="3.24194" transform="rotate(-180 427.436 199.77)" fill="white" fill-opacity="0.15"/>
<rect x="424.194" y="197.339" width="11.3468" height="1.62097" transform="rotate(-180 424.194 197.339)" fill="white" fill-opacity="0.15"/>
<rect x="411.226" y="197.339" width="17.8306" height="1.62097" transform="rotate(-180 411.226 197.339)" fill="white" fill-opacity="0.15"/>
<g clip-path="url(#clip13_735_9522)">
<rect x="626.004" y="161.677" width="34.0403" height="6.48387" rx="3.24194" transform="rotate(-180 626.004 161.677)" fill="white" fill-opacity="0.15"/>
<rect x="622.762" y="159.246" width="11.3468" height="1.62097" transform="rotate(-180 622.762 159.246)" fill="white" fill-opacity="0.15"/>
<rect x="609.794" y="159.246" width="17.8306" height="1.62097" transform="rotate(-180 609.794 159.246)" fill="white" fill-opacity="0.15"/>
</g>
<rect x="476.064" y="224.895" width="21.8831" height="6.48387" rx="3.24194" transform="rotate(-180 476.064 224.895)" fill="white" fill-opacity="0.15"/>
<rect x="472.823" y="222.464" width="15.3992" height="1.62097" transform="rotate(-180 472.823 222.464)" fill="white" fill-opacity="0.3"/>
<rect x="629.246" y="175.456" width="24.3145" height="6.48387" rx="3.24194" transform="rotate(-180 629.246 175.456)" fill="white" fill-opacity="0.15"/>
<rect x="626.004" y="173.024" width="17.8306" height="1.62097" transform="rotate(-180 626.004 173.024)" fill="white" fill-opacity="0.15"/>
<rect x="576.564" y="233" width="40.5242" height="6.48387" rx="3.24194" transform="rotate(-180 576.564 233)" fill="white" fill-opacity="0.15"/>
<rect x="573.323" y="230.569" width="34.0403" height="1.62097" transform="rotate(-180 573.323 230.569)" fill="white" fill-opacity="0.15"/>
<g clip-path="url(#clip14_735_9522)">
<rect x="621.952" y="211.117" width="37.2823" height="6.48387" rx="3.24194" transform="rotate(-180 621.952 211.117)" fill="white" fill-opacity="0.15"/>
<rect x="618.71" y="208.685" width="11.3468" height="1.62097" transform="rotate(-180 618.71 208.685)" fill="white" fill-opacity="0.15"/>
<rect x="605.742" y="208.685" width="42.1452" height="1.62097" transform="rotate(-180 605.742 208.685)" fill="white" fill-opacity="0.3"/>
</g>
<defs>
<filter id="filter0_f_735_9522" x="654.595" y="98.8746" width="70.9819" height="70.9818" filterUnits="userSpaceOnUse" color-interpolation-filters="sRGB">
<feFlood flood-opacity="0" result="BackgroundImageFix"/>
<feBlend mode="normal" in="SourceGraphic" in2="BackgroundImageFix" result="shape"/>
<feGaussianBlur stdDeviation="9.72374" result="effect1_foregroundBlur_735_9522"/>
</filter>
<filter id="filter1_f_735_9522" x="691.679" y="136.402" width="70.9819" height="70.9818" filterUnits="userSpaceOnUse" color-interpolation-filters="sRGB">
<feFlood flood-opacity="0" result="BackgroundImageFix"/>
<feBlend mode="normal" in="SourceGraphic" in2="BackgroundImageFix" result="shape"/>
<feGaussianBlur stdDeviation="9.72374" result="effect1_foregroundBlur_735_9522"/>
</filter>
<filter id="filter2_f_735_9522" x="729.65" y="173.928" width="70.9819" height="70.9818" filterUnits="userSpaceOnUse" color-interpolation-filters="sRGB">
<feFlood flood-opacity="0" result="BackgroundImageFix"/>
<feBlend mode="normal" in="SourceGraphic" in2="BackgroundImageFix" result="shape"/>
<feGaussianBlur stdDeviation="9.72374" result="effect1_foregroundBlur_735_9522"/>
</filter>
<filter id="filter3_f_735_9522" x="767.049" y="210.861" width="70.9819" height="70.9818" filterUnits="userSpaceOnUse" color-interpolation-filters="sRGB">
<feFlood flood-opacity="0" result="BackgroundImageFix"/>
<feBlend mode="normal" in="SourceGraphic" in2="BackgroundImageFix" result="shape"/>
<feGaussianBlur stdDeviation="9.72374" result="effect1_foregroundBlur_735_9522"/>
</filter>
<filter id="filter4_f_735_9522" x="729.071" y="99.074" width="70.9819" height="70.9818" filterUnits="userSpaceOnUse" color-interpolation-filters="sRGB">
<feFlood flood-opacity="0" result="BackgroundImageFix"/>
<feBlend mode="normal" in="SourceGraphic" in2="BackgroundImageFix" result="shape"/>
<feGaussianBlur stdDeviation="9.72374" result="effect1_foregroundBlur_735_9522"/>
</filter>
<filter id="filter5_f_735_9522" x="691.988" y="61.547" width="70.9819" height="70.9818" filterUnits="userSpaceOnUse" color-interpolation-filters="sRGB">
<feFlood flood-opacity="0" result="BackgroundImageFix"/>
<feBlend mode="normal" in="SourceGraphic" in2="BackgroundImageFix" result="shape"/>
<feGaussianBlur stdDeviation="9.72374" result="effect1_foregroundBlur_735_9522"/>
</filter>
<filter id="filter6_f_735_9522" x="879.208" y="99.074" width="70.9819" height="70.9818" filterUnits="userSpaceOnUse" color-interpolation-filters="sRGB">
<feFlood flood-opacity="0" result="BackgroundImageFix"/>
<feBlend mode="normal" in="SourceGraphic" in2="BackgroundImageFix" result="shape"/>
<feGaussianBlur stdDeviation="9.72374" result="effect1_foregroundBlur_735_9522"/>
</filter>
<filter id="filter7_f_735_9522" x="842.125" y="61.547" width="70.9819" height="70.9818" filterUnits="userSpaceOnUse" color-interpolation-filters="sRGB">
<feFlood flood-opacity="0" result="BackgroundImageFix"/>
<feBlend mode="normal" in="SourceGraphic" in2="BackgroundImageFix" result="shape"/>
<feGaussianBlur stdDeviation="9.72374" result="effect1_foregroundBlur_735_9522"/>
</filter>
<filter id="filter8_f_735_9522" x="917.179" y="136.601" width="70.9819" height="70.9818" filterUnits="userSpaceOnUse" color-interpolation-filters="sRGB">
<feFlood flood-opacity="0" result="BackgroundImageFix"/>
<feBlend mode="normal" in="SourceGraphic" in2="BackgroundImageFix" result="shape"/>
<feGaussianBlur stdDeviation="9.72374" result="effect1_foregroundBlur_735_9522"/>
</filter>
<filter id="filter9_f_735_9522" x="841.969" y="137.418" width="70.9819" height="70.9818" filterUnits="userSpaceOnUse" color-interpolation-filters="sRGB">
<feFlood flood-opacity="0" result="BackgroundImageFix"/>
<feBlend mode="normal" in="SourceGraphic" in2="BackgroundImageFix" result="shape"/>
<feGaussianBlur stdDeviation="9.72374" result="effect1_foregroundBlur_735_9522"/>
</filter>
<filter id="filter10_f_735_9522" x="917.193" y="62.3631" width="70.9819" height="70.9818" filterUnits="userSpaceOnUse" color-interpolation-filters="sRGB">
<feFlood flood-opacity="0" result="BackgroundImageFix"/>
<feBlend mode="normal" in="SourceGraphic" in2="BackgroundImageFix" result="shape"/>
<feGaussianBlur stdDeviation="9.72374" result="effect1_foregroundBlur_735_9522"/>
</filter>
<filter id="filter11_f_735_9522" x="879.208" y="174.958" width="70.9819" height="70.9818" filterUnits="userSpaceOnUse" color-interpolation-filters="sRGB">
<feFlood flood-opacity="0" result="BackgroundImageFix"/>
<feBlend mode="normal" in="SourceGraphic" in2="BackgroundImageFix" result="shape"/>
<feGaussianBlur stdDeviation="9.72374" result="effect1_foregroundBlur_735_9522"/>
</filter>
<filter id="filter12_f_735_9522" x="729.65" y="248.997" width="70.9819" height="70.9818" filterUnits="userSpaceOnUse" color-interpolation-filters="sRGB">
<feFlood flood-opacity="0" result="BackgroundImageFix"/>
<feBlend mode="normal" in="SourceGraphic" in2="BackgroundImageFix" result="shape"/>
<feGaussianBlur stdDeviation="9.72374" result="effect1_foregroundBlur_735_9522"/>
</filter>
<linearGradient id="paint0_linear_735_9522" x1="821.539" y1="31.1285" x2="821.539" y2="336.884" gradientUnits="userSpaceOnUse">
<stop stop-color="#13CFFF" stop-opacity="0"/>
<stop offset="1" stop-color="#13CFFF"/>
</linearGradient>
<linearGradient id="paint1_linear_735_9522" x1="77.6166" y1="244.62" x2="-21.1003" y2="218.313" gradientUnits="userSpaceOnUse">
<stop stop-color="#0BF2F6"/>
<stop offset="1" stop-color="#13CFFF"/>
</linearGradient>
<clipPath id="clip0_735_9522">
<path d="M154.945 95.288C154.945 91.1211 158.323 87.743 162.49 87.743H188.143C192.31 87.743 195.688 91.1211 195.688 95.288V95.288C195.688 99.455 192.31 102.833 188.143 102.833H162.49C158.323 102.833 154.945 99.455 154.945 95.288V95.288Z" fill="white"/>
</clipPath>
<clipPath id="clip1_735_9522">
<path d="M201.479 220.455C201.479 216.288 204.857 212.91 209.024 212.91H249.767C253.934 212.91 257.312 216.288 257.312 220.455V220.455C257.312 224.622 253.934 228 249.767 228H209.024C204.857 228 201.479 224.622 201.479 220.455V220.455Z" fill="white"/>
</clipPath>
<clipPath id="clip2_735_9522">
<path d="M171.052 65.4019C171.052 61.2349 174.43 57.8569 178.597 57.8569H281.964C286.131 57.8569 289.509 61.2349 289.509 65.4019V65.4019C289.509 69.5689 286.131 72.9469 281.964 72.9469H178.597C174.43 72.9469 171.052 69.5689 171.052 65.4019V65.4019Z" fill="white"/>
</clipPath>
<clipPath id="clip3_735_9522">
<path d="M280.455 145.795C280.455 141.628 283.833 138.25 288 138.25H313.653C317.82 138.25 321.198 141.628 321.198 145.795V145.795C321.198 149.962 317.82 153.34 313.653 153.34H288C283.833 153.34 280.455 149.962 280.455 145.795V145.795Z" fill="white"/>
</clipPath>
<clipPath id="clip4_735_9522">
<rect x="27.937" y="40.1646" width="39.8031" height="39.8031" rx="19.9015" fill="white"/>
</clipPath>
<clipPath id="clip5_735_9522">
<rect x="26.3447" y="108.626" width="39.8031" height="39.8031" rx="19.9015" fill="white"/>
</clipPath>
<clipPath id="clip6_735_9522">
<rect x="26.3447" y="179.475" width="39.8031" height="39.8031" rx="19.9015" fill="white"/>
</clipPath>
<clipPath id="clip7_735_9522">
<rect x="84.457" y="74.3951" width="39.8031" height="39.8031" rx="19.9015" fill="white"/>
</clipPath>
<clipPath id="clip8_735_9522">
<rect x="83.6611" y="144.449" width="39.8031" height="39.8031" rx="19.9015" fill="white"/>
</clipPath>
<clipPath id="clip9_735_9522">
<rect x="540.093" y="37.6734" width="21.0726" height="6.48387" rx="3.24194" fill="white"/>
</clipPath>
<clipPath id="clip10_735_9522">
<rect x="364.218" y="78.1976" width="58.3548" height="6.48387" rx="3.24194" fill="white"/>
</clipPath>
<clipPath id="clip11_735_9522">
<rect x="588.722" y="70.9032" width="51.0605" height="6.48387" rx="3.24194" fill="white"/>
</clipPath>
<clipPath id="clip12_735_9522">
<rect x="449.319" y="32" width="21.0726" height="6.48387" rx="3.24194" fill="white"/>
</clipPath>
<clipPath id="clip13_735_9522">
<rect x="626.004" y="161.677" width="34.0403" height="6.48387" rx="3.24194" transform="rotate(-180 626.004 161.677)" fill="white"/>
</clipPath>
<clipPath id="clip14_735_9522">
<rect x="621.952" y="211.117" width="37.2823" height="6.48387" rx="3.24194" transform="rotate(-180 621.952 211.117)" fill="white"/>
</clipPath>
</defs>
</svg>
