<?xml version="1.0" encoding="UTF-8"?>
<!DOCTYPE svg PUBLIC "-//W3C//DTD SVG 1.1//EN" "http://www.w3.org/Graphics/SVG/1.1/DTD/svg11.dtd">
<svg version="1.1" xmlns="http://www.w3.org/2000/svg" xmlns:xlink="http://www.w3.org/1999/xlink" x="0" y="0" width="82" height="15" viewBox="0, 0, 82, 15">
  <g id="Layer_1">
    <g id="Layer_1">
      <path d="M15,0 L0,0 L0,15 L15,15 L15,0 z" fill="#00F3A2" opacity="0.75"/>
      <path d="M7.5,9.666 L9.455,9.186 L10.272,11.625 L7.5,9.666 z M12,6.514 L8.558,6.514 L7.5,3.375 L6.442,6.514 L3,6.514 L5.786,8.46 L4.728,11.599 L7.513,9.653 L9.228,8.46 L12,6.514 z" fill="#FFFFFF"/>
      <path d="M31.75,0 L16.75,0 L16.75,15 L31.75,15 L31.75,0 z" fill="#00F3A2" opacity="0.75"/>
      <path d="M24.25,9.666 L26.205,9.186 L27.022,11.625 L24.25,9.666 z M28.75,6.514 L25.308,6.514 L24.25,3.375 L23.192,6.514 L19.75,6.514 L22.536,8.46 L21.478,11.599 L24.263,9.653 L25.978,8.46 L28.75,6.514 z" fill="#FFFFFF"/>
      <path d="M48.5,0 L33.5,0 L33.5,15 L48.5,15 L48.5,0 z" fill="#00F3A2" opacity="0.75"/>
      <path d="M41,9.666 L42.955,9.186 L43.772,11.625 L41,9.666 z M45.5,6.514 L42.058,6.514 L41,3.375 L39.942,6.514 L36.5,6.514 L39.286,8.46 L38.228,11.599 L41.013,9.653 L42.728,8.46 L45.5,6.514 z" fill="#FFFFFF"/>
      <path d="M65.25,0 L50.25,0 L50.25,15 L65.25,15 L65.25,0 z" fill="#00F3A2" opacity="0.75"/>
      <path d="M57.75,9.666 L59.705,9.186 L60.522,11.625 L57.75,9.666 z M62.25,6.514 L58.808,6.514 L57.75,3.375 L56.692,6.514 L53.25,6.514 L56.036,8.46 L54.978,11.599 L57.763,9.653 L59.478,8.46 L62.25,6.514 z" fill="#FFFFFF"/>
      <path d="M82,0 L67,0 L67,15 L82,15 L82,0 z" fill="#00F3A2" opacity="0.75"/>
      <path d="M74.5,9.666 L76.455,9.186 L77.272,11.625 L74.5,9.666 z M79,6.514 L75.558,6.514 L74.5,3.375 L73.442,6.514 L70,6.514 L72.786,8.46 L71.728,11.599 L74.513,9.653 L76.228,8.46 L79,6.514 z" fill="#FFFFFF"/>
    </g>
  </g>
</svg>
